<?xml version="1.0" encoding="UTF-8"?>
<svg width="607px" height="720px" viewBox="0 0 607 720" version="1.1" xmlns="http://www.w3.org/2000/svg" xmlns:xlink="http://www.w3.org/1999/xlink">
    <!-- Generator: Sketch 52.6 (67491) - http://www.bohemiancoding.com/sketch -->
    <title>Group 2</title>
    <desc>Created with Sketch.</desc>
    <g id="Page-1" stroke="none" stroke-width="1" fill="none" fill-rule="evenodd">
        <g id="7456" transform="translate(-1264.000000, 0.000000)">
            <g id="Group-2" transform="translate(1264.000000, 0.000000)">
                <path d="M606.38,417.036 C606.38,584.365 470.72,720 303.42,720 C136.1,720 0.45,584.358 0.45,417.036 C0.45,249.715 136.1,114.069 303.42,114.069 C470.74,114.069 606.38,249.715 606.38,417.036" id="Fill-464" fill="#19232C"></path>
                <path d="M467.76,566.14 L467.76,671.589 C420.43,702.21 364,720 303.42,720 C242.83,720 186.41,702.21 139.07,671.589 L139.07,566.14 L467.76,566.14" id="Fill-465" fill="#CEC5BA"></path>
                <path d="M304.78,450.327 L304.83,566.14 L497.12,566.14 C551.22,474.521 517.14,372.934 517.14,372.934 L329.69,360.521 L304.78,450.327" id="Fill-466" fill="#119891"></path>
                <path d="M507.38,418.529 L507.38,434.315 C507.38,457.026 531.47,455.94 540.56,455.94 C542.67,455.94 543.8,453.645 542.54,452.074 C539.12,447.77 534.58,439.949 534.58,428.642 L534.58,418.529 L507.38,418.529" id="Fill-467" fill="#CEC5BA"></path>
                <path d="M456.74,418.529 L456.74,434.315 C456.74,457.026 480.87,455.94 489.95,455.94 C492.03,455.94 493.2,453.645 491.94,452.074 C488.52,447.77 483.98,439.949 483.98,428.642 L483.98,418.529 L456.74,418.529" id="Fill-468" fill="#CEC5BA"></path>
                <path d="M406.14,418.529 L406.14,434.315 C406.14,457.026 430.22,455.94 439.32,455.94 C441.43,455.94 442.6,453.645 441.33,452.074 C437.88,447.77 433.34,439.949 433.34,428.642 L433.34,418.529 L406.14,418.529" id="Fill-469" fill="#CEC5BA"></path>
                <path d="M469.92,566.14 L469.92,581.928 C469.92,604.637 494.01,603.553 503.1,603.553 C505.22,603.553 506.34,601.253 505.08,599.686 C501.66,595.381 497.12,587.559 497.12,576.252 L497.12,566.14 L469.92,566.14" id="Fill-470" fill="#119891"></path>
                <path d="M419.29,566.14 L419.29,581.928 C419.29,604.637 443.41,603.553 452.49,603.553 C454.57,603.553 455.75,601.253 454.48,599.686 C451.06,595.381 446.52,587.559 446.52,576.252 L446.52,566.14 L419.29,566.14" id="Fill-471" fill="#119891"></path>
                <path d="M304.9,418.529 L304.9,168.673 C406.56,166.322 533.92,240.314 534.58,418.529 C484.6,418.529 304.9,418.529 304.9,418.529" id="Fill-472" fill="#CEC5BA"></path>
                <polyline id="Fill-473" fill="#CEC5BA" points="483.39 511.413 496.02 498.783 483.67 486.435 471.04 499.064 483.39 511.413"></polyline>
                <polyline id="Fill-474" fill="#CEC5BA" points="444.11 511.413 456.74 498.783 444.39 486.435 431.76 499.064 444.11 511.413"></polyline>
                <polyline id="Fill-475" fill="#CEC5BA" points="404.83 511.413 417.46 498.783 405.12 486.435 392.49 499.064 404.83 511.413"></polyline>
                <path d="M305.02,450.327 L304.97,566.14 L112.68,566.14 C58.58,474.521 92.66,372.934 92.66,372.934 L280.1,360.521 L305.02,450.327" id="Fill-476" fill="#119891"></path>
                <path d="M409.15,319.474 C420.98,309.717 422.65,292.225 412.9,280.396 L370.07,315.732 C379.83,327.557 397.33,329.232 409.15,319.474" id="Fill-477" fill="#FCEC19"></path>
                <path d="M398.77,306.894 C403.65,302.871 404.34,295.656 400.31,290.781 L382.66,305.349 C386.68,310.226 393.89,310.915 398.77,306.894" id="Fill-478" fill="#0C0909"></path>
                <path d="M360.76,325.824 C360.76,325.824 367.36,302.224 416.57,263.817 L424.37,271.62 L360.76,325.824" id="Fill-479" fill="#0C0909"></path>
                <path d="M102.42,418.529 L102.42,434.315 C102.42,457.026 78.33,455.94 69.24,455.94 C67.12,455.94 66,453.645 67.26,452.074 C70.68,447.77 75.22,439.949 75.22,428.642 L75.22,418.529 L102.42,418.529" id="Fill-480" fill="#CEC5BA"></path>
                <path d="M153.05,418.529 L153.05,434.315 C153.05,457.026 128.93,455.94 119.85,455.94 C117.77,455.94 116.59,453.645 117.86,452.074 C121.28,447.77 125.82,439.949 125.82,428.642 L125.82,418.529 L153.05,418.529" id="Fill-481" fill="#CEC5BA"></path>
                <path d="M203.66,418.529 L203.66,434.315 C203.66,457.026 179.57,455.94 170.47,455.94 C168.36,455.94 167.2,453.645 168.46,452.074 C171.92,447.77 176.46,439.949 176.46,428.642 L176.46,418.529 L203.66,418.529" id="Fill-482" fill="#CEC5BA"></path>
                <path d="M139.88,566.14 L139.88,581.928 C139.88,604.637 115.79,603.553 106.7,603.553 C104.58,603.553 103.46,601.253 104.71,599.686 C108.13,595.381 112.68,587.559 112.68,576.252 L112.68,566.14 L139.88,566.14" id="Fill-483" fill="#119891"></path>
                <path d="M190.51,566.14 L190.51,581.928 C190.51,604.637 166.39,603.553 157.31,603.553 C155.22,603.553 154.05,601.253 155.32,599.686 C158.74,595.381 163.28,587.559 163.28,576.252 L163.28,566.14 L190.51,566.14" id="Fill-484" fill="#119891"></path>
                <path d="M304.9,418.529 L304.9,168.673 C203.24,166.322 75.88,240.314 75.22,418.529 C125.2,418.529 304.9,418.529 304.9,418.529" id="Fill-485" fill="#CEC5BA"></path>
                <path d="M304.9,371.678 L264.58,367.595 C194.16,392.035 196.2,447.195 224.78,495.192 L222.86,515.15 C201.15,523.246 185.67,544.17 185.67,568.711 C185.67,600.271 204.49,625.857 236.05,625.857 C311.45,625.857 304.9,547.306 304.9,371.678" id="Fill-486" fill="#ED2D24"></path>
                <polyline id="Fill-487" fill="#CEC5BA" points="126.41 511.413 113.78 498.783 126.12 486.435 138.75 499.064 126.41 511.413"></polyline>
                <polyline id="Fill-488" fill="#CEC5BA" points="165.68 511.413 153.05 498.783 165.4 486.435 178.03 499.064 165.68 511.413"></polyline>
                <polyline id="Fill-489" fill="#CEC5BA" points="204.96 511.413 192.33 498.783 204.68 486.435 217.31 499.064 204.96 511.413"></polyline>
                <polyline id="Fill-490" fill="#AAA8A9" points="173.95 668.046 161.33 655.418 173.67 643.07 186.3 655.697 173.95 668.046"></polyline>
                <polyline id="Fill-491" fill="#AAA8A9" points="213.23 668.046 200.6 655.418 212.95 643.07 225.58 655.697 213.23 668.046"></polyline>
                <polyline id="Fill-492" fill="#AAA8A9" points="252.51 668.046 239.88 655.418 252.23 643.07 264.86 655.697 252.51 668.046"></polyline>
                <polyline id="Fill-493" fill="#AAA8A9" points="354.6 668.046 341.97 655.418 354.32 643.07 366.95 655.697 354.6 668.046"></polyline>
                <polyline id="Fill-494" fill="#AAA8A9" points="393.88 668.046 381.25 655.418 393.6 643.07 406.23 655.697 393.88 668.046"></polyline>
                <polyline id="Fill-495" fill="#AAA8A9" points="433.16 668.046 420.53 655.418 432.88 643.07 445.51 655.697 433.16 668.046"></polyline>
                <path d="M278.29,571.58 C278.29,594.485 259.72,613.053 236.82,613.053 C213.91,613.053 195.34,594.485 195.34,571.58 C195.34,548.675 213.91,530.109 236.82,530.109 C259.72,530.109 278.29,548.675 278.29,571.58" id="Fill-496" fill="#EF4A48"></path>
                <path d="M304.9,371.678 L345.22,367.595 C415.63,392.035 413.59,447.195 385.02,495.192 L386.93,515.15 C408.65,523.246 424.12,544.17 424.12,568.711 C424.12,600.271 405.31,625.857 373.74,625.857 C298.35,625.857 304.9,547.306 304.9,371.678" id="Fill-497" fill="#CA2027"></path>
                <path d="M331.51,571.58 C331.51,594.485 350.08,613.053 372.98,613.053 C395.89,613.053 414.45,594.485 414.45,571.58 C414.45,548.675 395.89,530.109 372.98,530.109 C350.08,530.109 331.51,548.675 331.51,571.58" id="Fill-498" fill="#ED2D24"></path>
                <path d="M304.9,0 C304.9,0 265.03,24.611 242.82,154.83 L263.26,212.817 L304.9,212.817 L304.9,0" id="Fill-499" fill="#ED2D24"></path>
                <path d="M304.9,0 C304.9,0 344.77,24.611 366.97,154.83 L346.54,212.817 L304.9,212.817 L304.9,0" id="Fill-500" fill="#CA2027"></path>
                <polyline id="Fill-501" fill="#EF4A48" points="286.22 327.522 212.07 217.336 305.02 192.499 305.02 320.235 286.22 327.522"></polyline>
                <polyline id="Fill-502" fill="#ED2D24" points="323.81 327.522 397.96 217.336 305.02 192.499 305.02 320.235 323.81 327.522"></polyline>
                <path d="M305.02,320.235 L305.02,460.3 C277.71,427.868 208.03,320.235 305.02,320.235" id="Fill-503" fill="#FCEC19"></path>
                <path d="M305.02,460.3 L305.02,320.235 C401.99,320.235 332.32,427.868 305.02,460.3" id="Fill-504" fill="#FDCD08"></path>
                <path d="M200.65,319.474 C188.82,309.717 187.14,292.225 196.9,280.396 L239.72,315.732 C229.97,327.557 212.47,329.232 200.65,319.474" id="Fill-505" fill="#FCEC19"></path>
                <path d="M211.03,306.894 C206.15,302.871 205.46,295.656 209.48,290.781 L227.14,305.349 C223.12,310.226 215.9,310.915 211.03,306.894" id="Fill-506" fill="#0C0909"></path>
                <path d="M249.04,325.824 C249.04,325.824 242.44,302.224 193.23,263.817 L185.43,271.62 L249.04,325.824" id="Fill-507" fill="#0C0909"></path>
            </g>
        </g>
    </g>
</svg>