<?xml version="1.0" encoding="UTF-8"?>
<svg width="650px" height="694px" viewBox="0 0 650 694" version="1.1" xmlns="http://www.w3.org/2000/svg" xmlns:xlink="http://www.w3.org/1999/xlink">
    <!-- Generator: Sketch 52.6 (67491) - http://www.bohemiancoding.com/sketch -->
    <title>Group 15</title>
    <desc>Created with Sketch.</desc>
    <g id="Page-1" stroke="none" stroke-width="1" fill="none" fill-rule="evenodd">
        <g id="7456" transform="translate(-4950.000000, -2513.000000)">
            <g id="Group-15" transform="translate(4950.000000, 2513.000000)">
                <path d="M120.86,264.2 C120.86,264.2 -102.42,146.62 57.99,10.75 C73.33,-2.25 96.95,4.66 102.68,23.92 L115.98,68.56 C115.98,68.56 217.31,-22.08 333,5.46 L320.01,34.55 C320.01,34.55 409.07,24.15 461.41,68.24 C472.08,77.21 468.569,94.54 455.189,98.49 C411.21,111.51 351.01,141.72 343.529,169.85 L120.86,264.2" id="Fill-91" fill="#ED2D24"></path>
                <path d="M641.26,589.62 C630.149,635.25 611.26,671.87 601.109,693.85 L154.47,693.85 C154.47,693.85 173.91,644.76 198.46,581.44 C206.14,577.1 212.86,571.63 218.31,565.34 C232.67,581.96 255.899,592.75 282.149,592.75 C308.399,592.75 331.66,581.96 346.02,565.34 C360.37,581.96 383.609,592.75 409.859,592.75 C436.109,592.75 459.35,581.96 473.71,565.34 C488.06,581.96 511.3,592.75 537.55,592.75 C563.79,592.75 587.06,581.96 601.41,565.34 C611.189,576.66 625.09,585.27 641.26,589.62" id="Fill-92" fill="#0EA9CB"></path>
                <path d="M641.26,589.62 C625.09,585.27 611.189,576.66 601.41,565.34 C587.06,581.96 563.79,592.75 537.55,592.75 C511.3,592.75 488.06,581.96 473.71,565.34 C459.35,581.96 436.109,592.75 409.859,592.75 C383.609,592.75 360.37,581.96 346.02,565.34 C331.66,581.96 308.399,592.75 282.149,592.75 C255.899,592.75 232.67,581.96 218.31,565.34 C212.86,571.63 206.14,577.1 198.46,581.44 C212.01,546.42 237.689,260.41 233.84,256.95 L343.529,169.85 C545.16,260.09 622.88,370.95 643.63,462.21 C654.21,508.66 650.35,552.18 641.26,589.62" id="Fill-93" fill="#FCC10F"></path>
                <path d="M369.88,344.16 C280.729,300.89 183.18,386.43 233.75,459.68 L220.22,469.13 L120.86,264.2 L343.529,169.85 C343.529,169.85 405.279,260.14 369.88,344.16" id="Fill-94" fill="#8FAA3D"></path>
                <path d="M193.62,332.93 L143.89,380.04 C79.36,346.28 16.71,353.79 14.67,354.04 C16.54,352.88 94.02,305.38 193.62,332.93" id="Fill-95" fill="#F0B31C"></path>
                <path d="M193.62,332.93 C94.02,305.38 16.54,352.88 14.67,354.04 L14.63,354.06 C47.44,297.42 120.86,264.19 120.86,264.19 L193.62,332.93" id="Fill-96" fill="#FCEC19"></path>
                <path d="M100.15,312.16 C100.15,316.18 96.42,319.44 91.83,319.44 C87.229,319.44 83.51,316.18 83.51,312.16 C83.51,308.14 87.229,304.88 91.83,304.88 C96.42,304.88 100.15,308.14 100.15,312.16" id="Fill-97" fill="#F0B31C"></path>
                <path d="M294.56,268.26 C294.56,284.76 281.3,298.14 264.94,298.14 C248.58,298.14 235.319,284.76 235.319,268.26 C235.319,251.75 248.58,238.38 264.94,238.38 C281.3,238.38 294.56,251.75 294.56,268.26" id="Fill-98" fill="#282827"></path>
                <path d="M286.28,268.26 C286.28,280.15 276.73,289.79 264.94,289.79 C253.15,289.79 243.6,280.15 243.6,268.26 C243.6,256.36 253.15,246.72 264.94,246.72 C276.73,246.72 286.28,256.36 286.28,268.26" id="Fill-99" fill="#414243"></path>
                <path d="M288.93,263.54 C288.93,270.22 283.56,275.64 276.93,275.64 C270.31,275.64 264.94,270.22 264.94,263.54 C264.94,256.86 270.31,251.44 276.93,251.44 C283.56,251.44 288.93,256.86 288.93,263.54" id="Fill-100" fill="#FFFFFF"></path>
                <path d="M259.18,280.36 C259.18,284.55 255.81,287.95 251.66,287.95 C247.51,287.95 244.13,284.55 244.13,280.36 C244.13,276.17 247.51,272.77 251.66,272.77 C255.81,272.77 259.18,276.17 259.18,280.36" id="Fill-101" fill="#2C5DAA"></path>
                <path d="M369.88,344.16 C354.19,381.36 324.59,424.23 233.75,459.68 C182.77,385.82 281.13,301.08 369.88,344.16" id="Fill-102" fill="#F5841F"></path>
                <path d="M198.46,332.93 L198.46,551.6 L198.02,551.6 C145.61,551.6 103.12,502.64 103.12,442.27 C103.12,381.88 145.61,332.93 198.02,332.93 L198.46,332.93" id="Fill-103" fill="#ED2D24"></path>
                <path d="M292.9,442.27 C292.9,502.48 250.66,551.32 198.46,551.6 L198.46,332.93 C250.66,333.21 292.9,382.04 292.9,442.27" id="Fill-104" fill="#D12026"></path>
                <polyline id="Fill-105" fill="#F5841F" points="367.66 459.75 394.69 506.56 340.63 506.56 367.66 459.75"></polyline>
                <polyline id="Fill-106" fill="#F5841F" points="419.84 362.02 446.87 408.84 392.81 408.84 419.84 362.02"></polyline>
                <polyline id="Fill-107" fill="#F5841F" points="454.83 459.75 481.859 506.56 427.8 506.56 454.83 459.75"></polyline>
                <polyline id="Fill-108" fill="#F5841F" points="537.229 372.68 564.26 419.5 510.2 419.5 537.229 372.68"></polyline>
                <polyline id="Fill-109" fill="#F5841F" points="437.29 256.95 464.32 303.76 410.26 303.76 437.29 256.95"></polyline>
                <polyline id="Fill-110" fill="#F5841F" points="576.2 492.12 586.08 509.22 566.32 509.22 576.2 492.12"></polyline>
            </g>
        </g>
    </g>
</svg>