<?xml version="1.0" encoding="UTF-8"?>
<svg width="650px" height="834px" viewBox="0 0 650 834" version="1.1" xmlns="http://www.w3.org/2000/svg" xmlns:xlink="http://www.w3.org/1999/xlink">
    <!-- Generator: Sketch 52.6 (67491) - http://www.bohemiancoding.com/sketch -->
    <title>Group 16</title>
    <desc>Created with Sketch.</desc>
    <g id="Page-1" stroke="none" stroke-width="1" fill="none" fill-rule="evenodd">
        <g id="7456" transform="translate(-4950.000000, -3710.000000)">
            <g id="Group-16" transform="translate(4949.000000, 3710.000000)">
                <path d="M28.24,123.65 C28.24,123.65 29.02,140.19 63.67,138.62 L63.67,122.08 L28.24,123.65" id="Fill-1" fill="#423D3D"></path>
                <path d="M47.92,84.29 C47.92,84.29 -7.99,89.8 2.25,138.62 C2.25,138.62 18,126.02 28.24,123.65 C28.24,123.65 35.319,133.89 63.67,122.08 C63.67,122.08 55.01,96.1 47.92,84.29" id="Fill-3" fill="#B2B0B0"></path>
                <path d="M54.03,84.29 C56.39,83.21 -5.49,42.33 69.77,8.11 C72.529,6.86 107.23,-2.31 132.279,1.14 C146.189,3.06 158.75,9.91 160.229,24.98 C161.08,33.63 157.68,45.35 149.55,49.83 C136.01,57.29 122.8,61.74 108.37,66.47 C90.26,72.41 72.14,78.35 54.03,84.29" id="Fill-4" fill="#E0244E"></path>
                <path d="M47.92,84.29 C47.92,84.29 52.54,50.43 88.029,44.13 C88.029,44.13 239.26,-7.84 254.22,150.43 L174.26,206.49 C174.26,206.49 174.24,161.5 156.92,146.54 C156.92,146.54 91.94,184.34 63.67,138.62 L47.92,84.29" id="Fill-5" fill="#DBCCC5"></path>
                <path d="M169.97,238.5 C169.97,238.5 162.88,140.56 276.27,136.63 C276.27,136.63 344.16,132.14 338.48,196.35 C329.029,303 188.87,251.4 169.97,238.5" id="Fill-6" fill="#F4D3E5"></path>
                <polyline id="Fill-7" fill="#3AA6DC" points="423.76 812.54 401.97 833.95 241.229 833.95 292.86 751.22 345.23 690.34 389.77 679.11 631.99 675.64 574.94 746.94 465.13 784.02 423.76 812.54"></polyline>
                <polygon id="Fill-8" fill="#E68225" points="384.05 673.69 401.97 673.69 401.97 549.67 384.05 549.67"></polygon>
                <path d="M398.109,662.97 C398.109,662.97 413.14,689.43 383.79,695.16 C354.46,700.89 380.95,695.16 380.95,695.16 C380.95,695.16 370.48,698.44 362.68,726.2 C362.029,728.55 359.92,730.22 357.479,730.22 C354.25,730.22 351.73,727.43 352.13,724.21 C353.16,715.99 356.109,700.8 364.48,688.02 C364.48,688.02 330.76,695.27 320.52,726.33 C319.779,728.6 317.76,730.22 315.35,730.22 L314.91,730.22 C311.09,730.22 308.46,726.38 309.91,722.83 C315.97,708.02 332.99,675.47 368.06,667.25 L398.109,662.97" id="Fill-9" fill="#E68225"></path>
                <path d="M298.65,181.37 C298.65,181.37 316.76,199.45 302.74,229.08 C302.74,229.08 659.57,261.51 533.63,738.58 C492.15,716.62 470.18,685.31 453.49,581.63 C453.49,581.63 140.529,511.49 167.24,240.53 L165.63,204.27 L188.41,226.07 L210.08,195.95 L231.05,224.48 L254.22,189.06 L275.81,215.83 L298.65,181.37" id="Fill-10" fill="#171515"></path>
                <path d="M116.2,80.2 C115.35,76.08 100.76,57.75 82.51,90.03 C82.51,90.03 122.71,111.65 116.2,80.2" id="Fill-11" fill="#E0244E"></path>
                <path d="M91.59,83.07 C91.59,88.87 96.27,93.56 102.069,93.56 C107.87,93.56 112.56,88.87 112.56,83.07 C112.56,77.29 107.87,72.59 102.069,72.59 C96.27,72.59 91.59,77.29 91.59,83.07" id="Fill-12" fill="#262525"></path>
                <path d="M98.43,85.43 C98.43,87.97 100.06,90.03 102.08,90.03 C104.09,90.03 105.72,87.97 105.72,85.43 C105.72,82.89 104.09,80.82 102.08,80.82 C100.06,80.82 98.43,82.89 98.43,85.43" id="Fill-13" fill="#FFFFFF"></path>
                <path d="M523.27,585.51 C523.27,585.51 542.96,669.13 497,730.22 C497,730.22 429.14,704.83 436.79,595.37 L441.18,558.95 L523.27,585.51" id="Fill-14" fill="#2B2828"></path>
                <path d="M651,552.16 C587.67,634.56 449.27,622.37 348.819,531.09 C277.34,466.03 242.81,375.77 259.2,303.49 C268.13,343.15 291.9,383.66 327.49,416.1 C395.83,478.17 486.9,492.89 541.06,452.05 L651,552.16" id="Fill-15" fill="#423D3D"></path>
                <path d="M541.06,452.05 C486.9,492.89 395.83,478.17 327.49,416.1 C291.9,383.66 268.13,343.15 259.2,303.49 C264.35,280.77 274.53,259.81 290.17,241.98 C293.12,238.6 296.26,235.36 299.62,232.22 L541.06,452.05" id="Fill-16" fill="#2B2828"></path>
                <path d="M165.72,264.97 C165.72,264.97 147.96,374.19 180.77,435.5 L199.689,422.42 C199.689,422.42 194.14,438.73 234.51,481.32 L255.22,435.5 L165.72,264.97" id="Fill-17" fill="#262525"></path>
                <polyline id="Fill-18" fill="#4C7ABC" points="631.99 675.64 626.29 833.95 401.97 833.95 472.25 762.63 560.55 738.58 631.99 675.64"></polyline>
                <path d="M616.42,580.53 L531.02,503.19 C543.02,503.07 554.5,502.13 565.37,500.31 L612.45,542.95 C623.27,552.75 624.78,568.98 616.42,580.53" id="Fill-19" fill="#F4D3E5"></path>
                <path d="M522.75,549.04 L464.29,496.11 C479.57,499.37 494.5,501.49 508.891,502.51 L518.79,511.46 C529.61,521.26 531.1,537.49 522.75,549.04" id="Fill-20" fill="#F4D3E5"></path>
                <path d="M429.069,517.55 L368.29,462.51 C389.24,472.759 410.31,481.08 431.01,487.46 C436.11,496.86 435.54,508.6 429.069,517.55" id="Fill-21" fill="#F4D3E5"></path>
            </g>
        </g>
    </g>
</svg>