<?xml version="1.0" encoding="UTF-8"?>
<svg width="651px" height="750px" viewBox="0 0 651 750" version="1.1" xmlns="http://www.w3.org/2000/svg" xmlns:xlink="http://www.w3.org/1999/xlink">
    <!-- Generator: Sketch 52.6 (67491) - http://www.bohemiancoding.com/sketch -->
    <title>Group 17</title>
    <desc>Created with Sketch.</desc>
    <g id="Page-1" stroke="none" stroke-width="1" fill="none" fill-rule="evenodd">
        <g id="7456" transform="translate(-3712.000000, -3752.000000)">
            <g id="Group-17" transform="translate(3712.000000, 3752.000000)">
                <path d="M456.27,479.1 L456.27,257.57 L86.29,0.82 C86.29,0.82 54.74,252.01 242.84,303.54 C242.84,303.54 196.44,483.92 359.52,549.56 L456.27,479.1" id="Fill-22" fill="#F3B02C"></path>
                <polyline id="Fill-23" fill="#7C6352" points="500.09 725.89 446.979 678.3 454.42 670 507.53 717.59 500.09 725.89"></polyline>
                <path d="M621.42,418.47 C621.42,450.66 590.51,473.92 559.52,464.7 C559.52,465.37 559.66,466.04 559.66,466.71 C569.1,584.73 524.13,638.09 469.36,660.38 L476.65,666.92 C497.979,685.95 469.22,718.13 447.88,699.11 L418.75,673.09 C359.22,680.23 303.63,664.4 303.63,664.4 L158.93,749.49 C153.43,741.02 96.21,653.62 87.22,639.95 L265.29,574.69 C115.61,505.5 159.75,333.6 159.75,333.6 C91.97,314.95 51.32,269.32 28.06,216.92 C24.04,207.85 20.48,198.56 17.5,189.13 C-0.93,132.12 -1.97,71.48 3.16,30.9 L373.12,287.6 L373.12,505.8 L537.66,385.92 C567.39,353.52 621.42,374.7 621.42,418.47" id="Fill-24" fill="#FFDB96"></path>
                <polyline id="Fill-25" fill="#7C6352" points="544.17 728.58 472.86 728.55 472.87 717.4 544.17 717.44 544.17 728.58"></polyline>
                <polyline id="Fill-26" fill="#7C6352" points="614.02 407.57 614.02 429.43 650.5 418.5 614.02 407.57"></polyline>
                <path d="M590.94,405.35 C590.94,410.25 586.97,414.22 582.07,414.22 C577.18,414.22 573.21,410.25 573.21,405.35 C573.21,400.45 577.18,396.48 582.07,396.48 C586.97,396.48 590.94,400.45 590.94,405.35" id="Fill-27" fill="#7C6352"></path>
                <path d="M450.82,666.78 L559.7,466.71 C570.169,597.88 513.47,649.16 450.82,666.78" id="Fill-28" fill="#F3B02C"></path>
                <polyline id="Fill-29" fill="#F3B02C" points="303.67 664.4 141.61 722.99 158.96 749.49 303.67 664.4"></polyline>
                <path d="M93.34,130.78 L6.17,143.82 C4.6,134.9 3.38,126.29 2.57,117.88 L93.34,130.78" id="Fill-30" fill="#F3B02C"></path>
                <path d="M143.62,202.65 L28.06,216.92 C24.04,207.85 20.48,198.56 17.5,189.13 L143.62,202.65" id="Fill-31" fill="#F3B02C"></path>
                <path d="M201.62,275.19 L77.66,288.49 C77.51,288.42 77.44,288.34 77.29,288.19 C68.67,280.17 61.09,271.54 54.32,262.4 L201.62,275.19" id="Fill-32" fill="#F3B02C"></path>
            </g>
        </g>
    </g>
</svg>