<?xml version="1.0" encoding="UTF-8"?>
<svg width="650px" height="612px" viewBox="0 0 650 612" version="1.1" xmlns="http://www.w3.org/2000/svg" xmlns:xlink="http://www.w3.org/1999/xlink">
    <!-- Generator: Sketch 52.6 (67491) - http://www.bohemiancoding.com/sketch -->
    <title>Group 18</title>
    <desc>Created with Sketch.</desc>
    <g id="Page-1" stroke="none" stroke-width="1" fill="none" fill-rule="evenodd">
        <g id="7456" transform="translate(-2475.000000, -3821.000000)">
            <g id="Group-18" transform="translate(2475.000000, 3821.000000)">
                <polyline id="Fill-33" fill="#BB7646" points="234.05 332.35 210.6 276.65 222.79 271.53 246.24 327.22 234.05 332.35"></polyline>
                <polyline id="Fill-34" fill="#BB7646" points="273.74 325.74 250.29 270.04 262.48 264.91 285.93 320.61 273.74 325.74"></polyline>
                <path d="M368.05,19.46 C341.42,-5.9 298.35,-6.02 271.75,19.37 C252.92,37.36 252.96,82.52 252.96,82.52 L5.61,82.52 L48.98,122.85 C65.61,213.85 137.39,282.3 223.42,282.3 L205.79,282.3 C374.19,282.3 413.45,62.7 368.05,19.46" id="Fill-35" fill="#A7DDE9"></path>
                <polyline id="Fill-36" fill="#BB7646" points="369.42 23.54 423.29 53.27 369.8 68.89 369.42 23.54"></polyline>
                <path d="M384.79,64.06 C377.79,-9.63 304.6,-11.98 271.75,19.37 C252.92,37.36 252.96,82.52 252.96,82.52 L5.61,82.52 L48.98,122.85 C53.04,145.07 60.4,165.93 70.45,184.79 C198.35,238.41 314.12,173.08 384.79,64.06" id="Fill-37" fill="#9A8479"></path>
                <path d="M359.73,38.18 C359.73,44.38 354.6,49.41 348.28,49.41 C341.96,49.41 336.84,44.38 336.84,38.18 C336.84,31.98 341.96,26.95 348.28,26.95 C354.6,26.95 359.73,31.98 359.73,38.18" id="Fill-38" fill="#A7DDE9"></path>
                <path d="M357.01,38.18 C357.01,42.91 353.1,46.74 348.28,46.74 C343.46,46.74 339.55,42.91 339.55,38.18 C339.55,33.45 343.46,29.61 348.28,29.61 C353.1,29.61 357.01,33.45 357.01,38.18" id="Fill-39" fill="#221F1F"></path>
                <path d="M3.21,169.75 C3.21,169.75 55.66,181.32 118.88,98.2 C182.09,15.08 253.37,82.33 253.37,82.33 C253.37,82.33 200.92,242.38 3.21,169.75" id="Fill-40" fill="#EE3832"></path>
                <path d="M638.31,316.19 L476.2,316.19 C518.38,292.46 552.4,249.9 564.09,206.13 L548.38,201.93 C534.56,253.65 486.78,303.6 433.32,316.19 L10.17,316.19 C4.55,316.19 -2.27373675e-13,320.74 -2.27373675e-13,326.36 L-2.27373675e-13,347.64 C-2.27373675e-13,353.25 4.55,357.81 10.17,357.81 L302.71,357.81 C330.58,365.21 355.2,377.09 374.99,392.88 C408.7,419.77 422.07,456.1 431.49,491.35 L447.21,487.14 C437.55,451.03 422.62,410.07 385.14,380.16 C374.44,371.62 362.46,364.16 349.46,357.81 L638.31,357.81 C643.93,357.81 648.48,353.25 648.48,347.64 L648.48,326.36 C648.48,320.74 643.93,316.19 638.31,316.19" id="Fill-41" fill="#8A5F3C"></path>
                <path d="M578.38,136.9 C551.76,169.15 546.67,208.9 553.59,214.61 C559.04,219.11 598.57,207.78 625.18,175.53 C651.8,143.27 649.97,97.82 649.97,97.82 C649.97,97.82 604.99,104.65 578.38,136.9" id="Fill-42" fill="#FFDD0F"></path>
                <path d="M500.38,156.71 C515.37,195.75 547.48,219.73 555.85,216.51 C562.45,213.98 572.02,173.99 557.03,134.96 C542.04,95.92 501.57,75.15 501.57,75.15 C501.57,75.15 485.39,117.67 500.38,156.71" id="Fill-43" fill="#FDBC1E"></path>
                <path d="M365.78,505.73 C407.58,506.919 442.06,486.5 442.32,477.54 C442.52,470.48 409.29,446.25 367.49,445.07 C325.69,443.89 290.95,473.26 290.95,473.26 C290.95,473.26 323.98,504.55 365.78,505.73" id="Fill-44" fill="#F89C24"></path>
                <path d="M431.14,557.09 C449.36,519.45 444.88,479.62 436.81,475.71 C430.45,472.63 394.73,493.009 376.52,530.65 C358.3,568.29 370.85,612.02 370.85,612.02 C370.85,612.02 412.93,594.72 431.14,557.09" id="Fill-45" fill="#FDBC1E"></path>
                <path d="M504.4,519.35 C480.59,484.98 443.71,469.29 436.34,474.4 C430.53,478.42 430.71,519.54 454.52,553.91 C478.34,588.29 522.58,598.87 522.58,598.87 C522.58,598.87 528.22,553.72 504.4,519.35" id="Fill-46" fill="#FFDD0F"></path>
                <path d="M574.19,200.44 C574.19,210.35 566.15,218.39 556.24,218.39 C546.32,218.39 538.28,210.35 538.28,200.44 C538.28,190.52 546.32,182.48 556.24,182.48 C566.15,182.48 574.19,190.52 574.19,200.44" id="Fill-47" fill="#EE3832"></path>
                <path d="M540.76,218.39 C540.76,228.3 532.73,236.34 522.81,236.34 C512.9,236.34 504.86,228.3 504.86,218.39 C504.86,208.47 512.9,200.44 522.81,200.44 C532.73,200.44 540.76,208.47 540.76,218.39" id="Fill-48" fill="#EE3832"></path>
                <path d="M581.04,236.66 C581.04,246.57 573,254.61 563.08,254.61 C553.17,254.61 545.13,246.57 545.13,236.66 C545.13,226.74 553.17,218.71 563.08,218.71 C573,218.71 581.04,226.74 581.04,236.66" id="Fill-49" fill="#EE3832"></path>
            </g>
        </g>
    </g>
</svg>