<?xml version="1.0" encoding="UTF-8"?>
<svg width="651px" height="608px" viewBox="0 0 651 608" version="1.1" xmlns="http://www.w3.org/2000/svg" xmlns:xlink="http://www.w3.org/1999/xlink">
    <!-- Generator: Sketch 52.6 (67491) - http://www.bohemiancoding.com/sketch -->
    <title>Group 19</title>
    <desc>Created with Sketch.</desc>
    <g id="Page-1" stroke="none" stroke-width="1" fill="none" fill-rule="evenodd">
        <g id="7456" transform="translate(-1237.000000, -3823.000000)">
            <g id="Group-19" transform="translate(1237.000000, 3823.000000)">
                <polygon id="Fill-50" fill="#914D21" points="44.6 545.61 346.43 545.61 346.43 485.27 44.6 485.27"></polygon>
                <polyline id="Fill-51" fill="#914D21" points="170.82 515.67 99.93 608.01 77.07 590.46 147.95 498.12 170.82 515.67"></polyline>
                <polyline id="Fill-52" fill="#914D21" points="157.5 520.29 93.54 457.66 121.36 429.24 185.33 491.88 157.5 520.29"></polyline>
                <path d="M196.27,468.2 L219.31,443.61 L201.62,428.24 C200.87,430.56 178.67,463.609 178.67,463.609 C119.28,460.84 91.25,500.12 100.97,526.6 C111.55,482.65 167.1,485.27 209.57,485.27 C209.48,485.08 196.27,468.2 196.27,468.2" id="Fill-53" fill="#BAA3A4"></path>
                <path d="M176.32,553.26 C170.71,545.41 171.36,535.3 174.07,526.49 C173.04,529.83 188.02,547.2 209.5,545.61 C211.19,564.08 184.15,564.2 176.32,553.26" id="Fill-54" fill="#BAA3A4"></path>
                <path d="M259.92,413.51 C259.92,435.15 241.74,452.68 219.31,452.68 C196.88,452.68 178.69,435.15 178.69,413.51 C178.69,391.88 196.88,374.34 219.31,374.34 C241.74,374.34 259.92,391.88 259.92,413.51" id="Fill-55" fill="#D6CCCD"></path>
                <path d="M255.77,307.52 C255.77,307.52 343.65,425.11 514.59,452.81 C514.59,452.81 490.61,493.04 415.47,495.38 C415.47,495.38 241.69,450.77 178.28,338.05 L255.77,307.52" id="Fill-56" fill="#D6CCCD"></path>
                <path d="M363.92,307.52 C363.92,307.52 451.79,407.12 622.73,434.81 C622.73,434.81 598.76,493.04 523.61,495.38 C523.61,495.38 349.83,450.77 286.43,338.05 L363.92,307.52" id="Fill-57" fill="#1D1750"></path>
                <path d="M391.69,345.57 C391.69,345.57 479.56,445.17 650.5,472.86 C650.5,472.86 615.36,517.94 540.21,520.29 C540.21,520.29 377.6,488.81 314.19,376.1 L391.69,345.57" id="Fill-58" fill="#1E407A"></path>
                <path d="M162.42,120.52 L136.88,130.98 L108.52,120.52 L126.36,95.49 C93.14,83.13 65.07,80.13 44.6,80.41 L44.6,83.77 C34.71,120.99 82.69,141.21 82.69,141.21 C59.3,174.14 29.49,422.39 346.43,429.14 L162.42,120.52" id="Fill-59" fill="#D6CCCD"></path>
                <path d="M209.5,96.59 C209.5,96.59 177.63,105.59 145.13,134.02 L108.52,120.52 L126.36,95.49 C100.45,85.85 72.59,81.53 54.11,80.39 C48.9,80.07 49.1,80.35 44.6,80.41 C33.56,-13.73 199.9,-44.24 209.5,96.59" id="Fill-60" fill="#1D1750"></path>
                <polyline id="Fill-61" fill="#CA6228" points="54.11 80.39 54.11 96.99 0.5 96.99 44.6 75.46 54.11 80.39"></polyline>
                <polyline id="Fill-62" fill="#8C3F1E" points="54.11 96.99 54.11 120.52 0.5 96.99 54.11 96.99"></polyline>
                <path d="M346.43,361.609 C346.43,407.26 306.89,444.26 258.1,444.26 C209.32,444.26 169.77,407.26 169.77,361.609 C169.77,315.96 209.32,278.95 258.1,278.95 C306.89,278.95 346.43,315.96 346.43,361.609" id="Fill-63" fill="#E51E25"></path>
                <path d="M209.5,96.59 C209.5,96.59 402.06,144.77 413.8,308.34 L413.8,401.45 C113.1,373.75 126.78,183.71 145.13,134.02 C145.13,134.02 169.77,108.76 209.5,96.59" id="Fill-64" fill="#1E407A"></path>
                <path d="M454.58,435.13 L194.85,134.02 C88.19,183.76 151.88,469.57 454.58,435.13" id="Fill-65" fill="#1E529D"></path>
                <path d="M113.1,60.8 C113.1,68.9 106.54,75.46 98.45,75.46 C90.35,75.46 83.8,68.9 83.8,60.8 C83.8,52.71 90.35,46.15 98.45,46.15 C106.54,46.15 113.1,52.71 113.1,60.8" id="Fill-66" fill="#FFFFFF"></path>
                <path d="M106.21,60.8 C106.21,65.09 102.74,68.56 98.45,68.56 C94.16,68.56 90.69,65.09 90.69,60.8 C90.69,56.52 94.16,53.04 98.45,53.04 C102.74,53.04 106.21,56.52 106.21,60.8" id="Fill-67" fill="#302F2F"></path>
                <path d="M54.11,120.52 C54.11,120.52 38.26,126 34.74,154.18 C34.74,154.18 47.65,145.96 54.11,144.78 C54.11,144.78 39.19,149.48 44.6,170.62 C44.6,170.62 53.52,156.75 74.66,161.33 C74.66,161.33 59.19,161.22 59.3,184.71 C59.3,184.71 71.49,174.14 90.69,174.14 L93.54,120.52 L71.14,108.76 L54.11,120.52" id="Fill-68" fill="#D6CCCD"></path>
                <polygon id="Fill-69" fill="#572D0E" points="285.12 545.61 302.45 545.61 302.45 525.87 285.12 525.87"></polygon>
                <polygon id="Fill-70" fill="#572D0E" points="228.18 506.6 245.51 506.6 245.51 485.27 228.18 485.27"></polygon>
                <path d="M221.98,193.54 C227.93,231.53 215.87,267.62 215.87,267.62 C200.84,269.32 178.23,263.37 159.19,249.59 C171.87,289.13 207.58,307.02 227.1,304.23 C227.1,304.23 243.86,240.75 221.98,193.54" id="Fill-71" fill="#3E79BD"></path>
                <path d="M274.48,295.21 C279.54,322.3 269.28,348.04 269.28,348.04 C256.5,349.25 237.28,345.01 221.08,335.18 C231.86,363.38 262.24,376.13 278.84,374.14 C278.84,374.14 293.09,328.88 274.48,295.21" id="Fill-72" fill="#3E79BD"></path>
                <path d="M336.51,341.58 C346.76,363.19 344.58,386.99 344.58,386.99 C334.75,390.79 318.55,391.42 303.47,386.72 C318.5,408 345.49,412.07 358.16,406.79 C358.16,406.79 359,365.75 336.51,341.58" id="Fill-73" fill="#3E79BD"></path>
            </g>
        </g>
    </g>
</svg>