<?xml version="1.0" encoding="UTF-8"?>
<svg width="499px" height="844px" viewBox="0 0 499 844" version="1.1" xmlns="http://www.w3.org/2000/svg" xmlns:xlink="http://www.w3.org/1999/xlink">
    <!-- Generator: Sketch 52.6 (67491) - http://www.bohemiancoding.com/sketch -->
    <title>Group 20</title>
    <desc>Created with Sketch.</desc>
    <g id="Page-1" stroke="none" stroke-width="1" fill="none" fill-rule="evenodd">
        <g id="7456" transform="translate(-76.000000, -3704.000000)">
            <g id="Group-20" transform="translate(76.000000, 3704.000000)">
                <path d="M331.435725,473 L44.607,473 C44.781,465.11 50.194,457.23 60.353,457.23 L315.831,457.23 C326.362,457.23 331.506,465.13 331.435725,473" id="Fill-74" fill="#B96328"></path>
                <path d="M331.435,473 C331.36,480.9 326.118,488.78 315.831,488.78 L60.353,488.78 C49.463,488.78 44.406,480.88 44.607,473 L331.435,473" id="Fill-75" fill="#914D21"></path>
                <path d="M223.516,439.87 L244.794,417.16 L228.46,402.97 C227.767,405.11 207.269,435.63 207.269,435.63 C152.42,433.07 126.532,469.35 135.512,493.8 C145.279,453.22 194.885,457.23 234.105,457.23 C234.019,457.05 233.931,456.9 233.819,456.72 L223.516,439.87" id="Fill-76" fill="#BAA3A4"></path>
                <path d="M207.01,493.9 C203.261,488.66 203.691,481.9 205.502,476.01 C204.813,478.25 214.826,489.85 229.177,488.79 C230.311,501.13 212.24,501.21 207.01,493.9" id="Fill-77" fill="#BAA3A4"></path>
                <path d="M339.521,392.26 C339.521,392.26 283.955,678.57 467.19,803.8 C467.19,803.8 364.978,596.21 399.513,398.9 L339.521,392.26" id="Fill-78" fill="#0BA94B"></path>
                <path d="M300.503,371.45 C300.503,371.45 236.691,700.2 447.109,844 C447.109,844 329.737,605.63 369.373,379.06 L300.503,371.45" id="Fill-79" fill="#D5DE24"></path>
                <path d="M443.287,511.49 C459.49,536.69 419.93,563.16 403.249,537.23 L313.634,397.92 C297.458,372.76 336.965,346.19 353.672,372.17 L443.287,511.49" id="Fill-80" fill="#669BD2"></path>
                <path d="M494.847,530.5 C511.051,555.7 471.474,582.17 454.807,556.25 L365.194,416.93 C349.019,391.77 388.523,365.21 405.232,391.18 L494.847,530.5" id="Fill-81" fill="#4082C3"></path>
                <path d="M24.017,43.27 C71.326,-46.69 244.72,7.9 278.782,167.32 L119.092,137.5 L24.017,43.27" id="Fill-82" fill="#4E8FCC"></path>
                <path d="M30.138,65.69 L24.017,43.27 C24.017,43.27 64.63,6.28 96.665,21.4 C107.383,26.47 119.479,42.22 100.587,65.69 C100.587,65.69 150.767,63.34 127.711,131.3 C120.428,152.78 97.887,156.17 83.45,143.75 L66.985,108.76 L30.138,65.69" id="Fill-83" fill="#DADBDF"></path>
                <path d="M85.016,48.37 C85.016,54.11 80.361,58.78 74.616,58.78 C68.867,58.78 64.213,54.11 64.213,48.37 C64.213,42.62 68.867,37.96 74.616,37.96 C80.361,37.96 85.016,42.62 85.016,48.37" id="Fill-84" fill="#212123"></path>
                <path d="M39.548,165.28 C39.548,165.28 35.439,147.48 42.521,135.66 C42.521,135.66 51.3,144 83.45,143.75 C83.45,143.75 81.266,111.73 66.985,88.58 L25.986,109.74 L21.503,132.45 L22.452,146.8 L39.548,165.28" id="Fill-85" fill="#242329"></path>
                <path d="M24.017,43.27 C-9.569,69.72 -8.951,141.83 39.548,165.28 C39.548,165.28 22.783,140.26 34.376,124.61 C34.376,124.61 60.521,121.28 66.985,88.58 C66.985,88.58 56.744,59.18 24.017,43.27" id="Fill-86" fill="#363538"></path>
                <path d="M282.302,389.36 C282.302,409.34 265.509,425.54 244.794,425.54 C224.08,425.54 207.282,409.34 207.282,389.36 C207.282,369.39 224.08,353.19 244.794,353.19 C265.509,353.19 282.302,369.39 282.302,389.36" id="Fill-87" fill="#F6B219"></path>
                <path d="M83.45,143.75 C83.45,143.75 52.98,214.2 129.146,261.8 C129.146,261.8 161.514,345.58 207.196,368.42 L290.463,412.85 C316.634,426.83 348.93,421.61 369.373,400.09 L131.733,117.05 L83.45,143.75" id="Fill-88" fill="#FBCD09"></path>
                <path d="M435.672,448.39 C392.904,434.85 341.905,401.93 294.771,361.51 C331.951,361.48 366.514,352.4 395.288,336.82 C420.661,398.58 435.672,448.39 435.672,448.39" id="Fill-89" fill="#363538"></path>
                <path d="M395.288,336.82 C366.514,352.4 331.951,361.48 294.771,361.51 C242.236,316.5 165.953,247.41 139.735,200.3 C71.295,77.4 224.35,63.67 304.812,168.51 C341.174,215.86 372.417,281.19 395.288,336.82" id="Fill-90" fill="#1D60AD"></path>
            </g>
        </g>
    </g>
</svg>