<?xml version="1.0" encoding="UTF-8"?>
<svg width="650px" height="732px" viewBox="0 0 650 732" version="1.1" xmlns="http://www.w3.org/2000/svg" xmlns:xlink="http://www.w3.org/1999/xlink">
    <!-- Generator: Sketch 52.6 (67491) - http://www.bohemiancoding.com/sketch -->
    <title>Group 3</title>
    <desc>Created with Sketch.</desc>
    <g id="Page-1" stroke="none" stroke-width="1" fill="none" fill-rule="evenodd">
        <g id="7456" transform="translate(-2475.000000, 0.000000)">
            <g id="Group-3" transform="translate(2475.000000, 0.000000)">
                <path d="M423.11,720.107 C423.11,726.306 428.34,731.348 434.8,731.348 L547.32,731.348 C553.78,731.348 559.02,726.306 559.02,720.107 C559.02,713.881 553.78,708.853 547.32,708.853 L434.8,708.853 C428.34,708.853 423.11,713.881 423.11,720.107" id="Fill-428" fill="#AB5626"></path>
                <polyline id="Fill-429" fill="#AB5626" points="456.59 656.638 481.22 656.638 481.22 626.088 500.9 626.088 500.9 720.107 481.22 720.107 481.22 683.272 456.59 656.638"></polyline>
                <path d="M489.11,720.107 C489.11,726.306 494.34,731.348 500.8,731.348 L525.6,731.348 C532.06,731.348 537.29,726.306 537.29,720.107 C537.29,713.881 532.06,708.853 525.6,708.853 L500.8,708.853 C494.34,708.853 489.11,713.881 489.11,720.107" id="Fill-430" fill="#DEA226"></path>
                <path d="M513.97,581.841 L513.97,623.412 C513.97,635.588 503.71,645.471 491.06,645.471 C478.41,645.471 468.15,635.588 468.15,623.412 L468.15,581.841 L513.97,581.841" id="Fill-431" fill="#E07726"></path>
                <path d="M34.07,427.673 C30.17,337.14 102.2,263.989 190.36,263.989 C279.53,263.989 350.79,338.474 346.65,427.673 L34.07,427.673" id="Fill-432" fill="#ED2D24"></path>
                <path d="M380.72,427.684 L312.66,427.684 C312.66,360.122 257.91,305.372 190.35,305.372 L190.35,237.332 C295.49,237.332 380.72,322.54 380.72,427.684" id="Fill-433" fill="#0EA9CB"></path>
                <path d="M546.26,98.884 C546.26,98.884 586.53,3.487 496.42,0.344 C487.8,0.041 481.69,8.639 484.87,16.652 L492.25,35.218 C492.25,35.218 434.05,31.61 402.41,71.612 L414.51,77.961 C414.51,77.961 381.76,98.116 375.84,126.865 C374.63,132.723 380.42,137.622 385.97,135.401 C404.24,128.103 448.01,117.799 470.96,136.01 L546.26,98.884" id="Fill-434" fill="#ED2D24"></path>
                <path d="M523.89,144.888 L536.68,170.009 C567.79,147.338 618.15,141.572 619.24,141.536 C618.17,141.084 573.85,122.628 523.89,144.888" id="Fill-435" fill="#F0B31C"></path>
                <path d="M550.53,167.989 C572.54,117.924 617.75,101.777 618.84,101.391 L618.86,101.382 C584.84,96.139 546.79,115.344 546.79,115.344 L550.53,167.989" id="Fill-436" fill="#FCEC19"></path>
                <path d="M601.73,365.699 L454.6,365.699 C425.13,300.473 425.13,183.791 471.77,150.468 C464.93,121.796 489.88,94.519 523.78,94.519 C553.1,94.519 577.04,115.304 576.89,140.947 C576.67,177.244 540.73,186.94 540.73,186.94 C563.23,237.332 581.6,306.983 601.73,365.699" id="Fill-437" fill="#FDCD08"></path>
                <path d="M607.96,561.779 C573.88,593.284 516.28,614.089 425.13,608.621 C333.67,603.125 237.58,524.229 237.58,427.684 L427.08,426.81 C427.08,426.81 454.88,367.747 454.6,365.699 L601.73,365.699 C646.21,379.054 680.53,494.677 607.96,561.779" id="Fill-438" fill="#F7961D"></path>
                <path d="M376.9,720.107 C376.9,726.306 382.13,731.348 388.59,731.348 L501.12,731.348 C507.58,731.348 512.81,726.306 512.81,720.107 C512.81,713.881 507.58,708.853 501.12,708.853 L388.59,708.853 C382.13,708.853 376.9,713.881 376.9,720.107" id="Fill-439" fill="#E07726"></path>
                <polyline id="Fill-440" fill="#E07726" points="410.39 656.638 435.01 656.638 435.01 626.088 454.69 626.088 454.69 720.107 435.01 720.107 435.01 683.272 410.39 656.638"></polyline>
                <path d="M442.9,720.107 C442.9,726.306 448.13,731.348 454.59,731.348 L479.39,731.348 C485.85,731.348 491.09,726.306 491.09,720.107 C491.09,713.881 485.85,708.853 479.39,708.853 L454.59,708.853 C448.13,708.853 442.9,713.881 442.9,720.107" id="Fill-441" fill="#F0B31C"></path>
                <path d="M376.9,720.107 C376.9,726.306 382.13,731.348 388.59,731.348 L501.12,731.348 C507.58,731.348 512.81,726.306 512.81,720.107 C512.81,713.881 507.58,708.853 501.12,708.853 L388.59,708.853 C382.13,708.853 376.9,713.881 376.9,720.107" id="Fill-442" fill="#E07726"></path>
                <polyline id="Fill-443" fill="#E07726" points="410.39 656.638 435.01 656.638 435.01 626.088 454.69 626.088 454.69 720.107 435.01 720.107 435.01 683.272 410.39 656.638"></polyline>
                <path d="M442.9,720.107 C442.9,726.306 448.13,731.348 454.59,731.348 L479.39,731.348 C485.85,731.348 491.09,726.306 491.09,720.107 C491.09,713.881 485.85,708.853 479.39,708.853 L454.59,708.853 C448.13,708.853 442.9,713.881 442.9,720.107" id="Fill-444" fill="#F0B31C"></path>
                <path d="M467.76,581.841 L467.76,623.412 C467.76,635.588 457.5,645.471 444.85,645.471 C432.2,645.471 421.95,635.588 421.95,623.412 L421.95,581.841 L467.76,581.841" id="Fill-445" fill="#F7961D"></path>
                <path d="M190.35,237.332 L190.35,305.372 C122.81,305.372 68.06,360.122 68.06,427.684 L2.27373675e-13,427.684 C2.27373675e-13,322.54 85.23,237.332 190.35,237.332" id="Fill-446" fill="#53C3C9"></path>
                <path d="M159.33,498.272 L136.52,552.628 C1.29,494.35 43.29,291.711 190.35,291.688 L190.35,350.556 C107.21,350.579 83.18,464.828 159.33,498.272" id="Fill-447" fill="#A0C83A"></path>
                <path d="M156.38,427.673 L156.38,427.641 C156.38,408.876 171.59,393.655 190.36,393.655 C209.13,393.655 224.34,408.876 224.34,427.641 L224.34,427.673 L156.38,427.673" id="Fill-448" fill="#0EA9CB"></path>
                <path d="M539.92,172.788 L516.74,221.047 C510.04,234.974 522.15,250.204 539.92,250.204 C557.68,250.204 569.79,234.974 563.1,221.047 L539.92,172.788" id="Fill-449" fill="#ED2D24"></path>
                <path d="M551.68,128.63 L522.47,135.947 C517.94,117.233 546.92,110.077 551.68,128.63" id="Fill-450" fill="#FFFFFF"></path>
                <path d="M546.05,130.039 L533.08,133.291 C522.24,118.889 548.83,112.342 546.05,130.039" id="Fill-451" fill="#333232"></path>
                <path d="M542.44,125.04 C542.78,126.389 541.93,127.762 540.53,128.113 C539.13,128.463 537.73,127.655 537.39,126.307 C537.05,124.957 537.91,123.58 539.31,123.231 C540.7,122.881 542.11,123.69 542.44,125.04" id="Fill-452" fill="#FFFFFF"></path>
                <polyline id="Fill-453" fill="#F7961D" points="481.58 223.313 493.39 230.053 500.14 218.235 488.32 211.497 481.58 223.313"></polyline>
                <polyline id="Fill-454" fill="#F7961D" points="461.68 266.541 473.49 273.282 480.23 261.466 468.42 254.725 461.68 266.541"></polyline>
                <polyline id="Fill-455" fill="#F7961D" points="493.79 293.735 505.61 300.473 512.35 288.656 500.54 281.918 493.79 293.735"></polyline>
                <polyline id="Fill-456" fill="#F7961D" points="478.81 329.137 490.62 335.879 497.36 324.061 485.54 317.321 478.81 329.137"></polyline>
                <polyline id="Fill-457" fill="#F7961D" points="516.12 338.872 527.94 345.614 534.68 333.796 522.86 327.056 516.12 338.872"></polyline>
                <path d="M326.37,427.684 L267.76,427.684 C266.65,386.069 232.27,350.556 190.37,350.556 L190.35,350.556 L190.35,291.688 L190.37,291.688 C265.17,291.688 325.8,352.997 326.37,427.684" id="Fill-458" fill="#849B3B"></path>
                <path d="M506.73,406.897 L412.99,525.119 C352.88,477.456 346.13,385.88 397.88,320.605 L506.73,406.897" id="Fill-459" fill="#FDCD08"></path>
                <path d="M615.62,493.229 C563.87,558.508 473.12,572.783 412.99,525.119 L506.73,406.897 L615.62,493.229" id="Fill-460" fill="#FDE34C"></path>
                <path d="M425.13,342.209 L244.33,198.861 C233.18,221.326 235.86,246.528 252.44,259.669 L398.66,375.601 L425.13,342.209" id="Fill-461" fill="#FDCD08"></path>
                <path d="M406.56,381.863 L252.44,259.67 C241.29,282.133 243.97,307.336 260.55,320.476 L380.09,415.252 L406.56,381.863" id="Fill-462" fill="#F7961D"></path>
                <path d="M414.67,442.669 L260.55,320.476 C249.4,342.942 252.08,368.146 268.65,381.287 L388.19,476.06 L414.67,442.669" id="Fill-463" fill="#FDCD08"></path>
            </g>
        </g>
    </g>
</svg>