<?xml version="1.0" encoding="UTF-8"?>
<svg width="650px" height="614px" viewBox="0 0 650 614" version="1.1" xmlns="http://www.w3.org/2000/svg" xmlns:xlink="http://www.w3.org/1999/xlink">
    <!-- Generator: Sketch 52.6 (67491) - http://www.bohemiancoding.com/sketch -->
    <title>Group 6</title>
    <desc>Created with Sketch.</desc>
    <g id="Page-1" stroke="none" stroke-width="1" fill="none" fill-rule="evenodd">
        <g id="7456" transform="translate(-4950.000000, -1326.000000)">
            <g id="Group-6" transform="translate(4949.000000, 1326.000000)">
                <polyline id="Fill-237" fill="#FDC24B" points="303.83 509.85 303.83 600.52 239.38 571.9 194.37 613.83 333.46 613.68 333.46 509.85 303.83 509.85"></polyline>
                <path d="M580.64,252.23 C579.66,404.38 456.15,527.5 303.89,527.83 C191.05,527.83 93.13,456.24 48.98,356.41 L48.98,252.17 L144.6,151.23 L144.6,130.65 C113.2,125.04 88.94,101.78 85.59,72.96 C81.04,33.33 115.84,0.07 159.2,0.07 C200.2,0.07 233.25,29.76 233.25,65.98 C233.25,70.64 233.26,246.96 233.189,251.62 C390.939,251.68 580.64,252.23 580.64,252.23" id="Fill-238" fill="#C8C8C8"></path>
                <path d="M233.25,65.98 L233.25,138.99 L144.6,138.99 L144.6,130.65 C113.2,125.04 88.94,101.78 85.59,72.96 C81.04,33.33 115.84,0.07 159.2,0.07 C200.2,0.07 233.25,29.76 233.25,65.98" id="Fill-239" fill="#016938"></path>
                <path d="M134.36,55.05 C134.36,59.81 130.51,63.66 125.75,63.66 C121,63.66 117.15,59.81 117.15,55.05 C117.15,50.3 121,46.45 125.75,46.45 C130.51,46.45 134.36,50.3 134.36,55.05" id="Fill-240" fill="#151515"></path>
                <path d="M87.399,50.18 L12.37,84.58 C5.39,87.6 0.88,94.82 1,102.78 L98.2,102.89 L87.399,50.18" id="Fill-241" fill="#FDC24B"></path>
                <path d="M83.75,71.59 C83.75,73.34 81.52,74.77 78.76,74.77 C76.01,74.77 73.779,73.34 73.779,71.59 C73.779,69.83 76.01,68.4 78.76,68.4 C81.52,68.4 83.75,69.83 83.75,71.59" id="Fill-242" fill="#221F1F"></path>
                <path d="M233.2,150.94 L233.08,518.25 C152.22,497.08 83.21,434.3 48.98,356.41 L48.98,252.17 C49.51,251.61 144.37,150.7 144.37,150.7 L233.2,150.94" id="Fill-243" fill="#81461E"></path>
                <path d="M566.93,332.82 L514.569,332.82 C486.77,332.82 476.05,282.72 476.05,252.05 L651,252.05 C651,299.16 586.95,332.82 566.93,332.82" id="Fill-244" fill="#151515"></path>
                <path d="M558.89016,251.74 C38.55,251.74 158.52,251.79 158.52,251.79 C159.91,324.3 247.16,384.73 359.29,384.73 C551.61,384.37 558.93,252.7 558.89016,251.74" id="Fill-245" fill="#929292"></path>
            </g>
        </g>
    </g>
</svg>