<?xml version="1.0" encoding="UTF-8"?>
<svg width="650px" height="612px" viewBox="0 0 650 612" version="1.1" xmlns="http://www.w3.org/2000/svg" xmlns:xlink="http://www.w3.org/1999/xlink">
    <!-- Generator: Sketch 52.6 (67491) - http://www.bohemiancoding.com/sketch -->
    <title>Group</title>
    <desc>Created with Sketch.</desc>
    <g id="Page-1" stroke="none" stroke-width="1" fill="none" fill-rule="evenodd">
        <g id="7456" transform="translate(0.000000, -60.000000)">
            <g id="Group" transform="translate(0.000000, 60.000000)">
                <path d="M560.779,147.73 L609.457,147.53 C609.457,147.53 610.36,209.958 560.578,266.163 L560.779,147.73" id="Fill-508" fill="#EE4137"></path>
                <path d="M454.36,227.597 C454.36,353.04 287.042,454.78 227.179,454.78 C226.502,454.78 225.831,454.78 225.153,454.717 C162.217,452.569 0,351.688 0,227.597 C0,102.832 100.637,1.521 225.153,0.417 L227.179,0.417 C352.62,0.417 454.36,102.158 454.36,227.597" id="Fill-509" fill="#D1822D"></path>
                <path d="M442.261,154.275 C411.752,64.8 326.963,0.417 227.179,0.417 L225.153,0.417 C126.484,1.292 42.806,65.099 12.319,153.628 C42.969,64.426 127.572,0.326 227.179,0.326 C327.017,0.326 411.793,64.742 442.261,154.275" id="Fill-510" fill="#757575"></path>
                <path d="M21.401,214.098 L0.427,214.098 C1.653,193.046 5.747,172.757 12.319,153.628 C42.806,65.099 126.484,1.292 225.153,0.417 L227.179,0.417 C326.963,0.417 411.752,64.8 442.261,154.275 C411.752,64.8 326.963,0.417 227.179,0.417 L225.153,0.417 L225.153,21.399 C116.52,22.176 27.949,107.062 21.401,214.098" id="Fill-511" fill="#62421F"></path>
                <path d="M44.594,214.699 C50.848,119.682 129.943,44.529 226.665,44.529 C323.393,44.529 402.489,119.682 408.742,214.699 L431.971,214.699 C425.685,106.891 336.191,21.394 226.665,21.394 C117.147,21.394 27.651,106.891 21.365,214.699 L44.594,214.699" id="Fill-512" fill="#CCBCD0"></path>
                <polygon id="Fill-513" fill="#FDC24B" points="370.961 611.205 399.17 611.205 399.17 512.403 370.961 512.403"></polygon>
                <polygon id="Fill-514" fill="#FDC24B" points="325.363 611.205 353.566 611.205 353.566 512.403 325.363 512.403"></polygon>
                <polygon id="Fill-515" fill="#BC202E" points="500.409 317.705 560.785 317.705 560.785 146.755 500.409 146.755"></polygon>
                <path d="M616.188,147.618 C457.897,147.618 537.318,148.201 500.358,147.73 C500.346,125.747 517.791,83.816 557.931,83.565 C594.828,83.565 616.019,117.081 616.188,147.618" id="Fill-516" fill="#CCBCD0"></path>
                <path d="M368.401,252.159 C368.401,330.153 273.229,391.844 227.179,393.38 C178.226,395.011 85.957,330.153 85.957,252.159 C85.957,174.164 149.181,110.937 227.179,110.937 C305.171,110.937 368.401,174.164 368.401,252.159" id="Fill-517" fill="#81461E"></path>
                <path d="M609.231,117.909 C609.231,117.909 652.213,148.609 649.911,214.615 C649.911,214.615 646.467,177.104 609.746,147.332 L609.231,117.909" id="Fill-518" fill="#D1822D"></path>
                <path d="M225.153,394.939 C212.42,394.829 196.645,389.872 180.748,381.222 C196.751,389.003 212.314,393.366 225.153,393.409 L225.153,394.939" id="Fill-519" fill="#6F4920"></path>
                <path d="M225.153,393.409 C212.314,393.366 196.751,389.003 180.748,381.222 C142.917,360.638 104.381,319.123 104.381,272.116 C104.381,204.971 158.263,150.412 225.153,149.333 L225.153,393.409" id="Fill-520" fill="#492C19"></path>
                <path d="M586.373,116.055 C586.373,119.446 583.625,122.193 580.231,122.193 C576.838,122.193 574.09,119.446 574.09,116.055 C574.09,112.662 576.838,109.914 580.231,109.914 C583.625,109.914 586.373,112.662 586.373,116.055" id="Fill-521" fill="#151515"></path>
                <path d="M227.179,454.78 C226.502,454.78 225.831,454.78 225.153,454.717 L225.153,394.939 C225.3,394.94 225.442,394.941 225.588,394.941 C226.122,394.941 226.657,394.932 227.179,394.914 C240.462,394.471 258.447,388.271 276.551,377.708 C320.738,354.385 368.401,307.355 368.401,252.159 C368.401,174.164 305.171,110.937 227.179,110.937 C226.503,110.937 225.827,110.941 225.153,110.951 L225.153,44.535 C225.654,44.531 226.163,44.529 226.665,44.529 C323.393,44.529 402.489,119.682 408.742,214.699 L431.971,214.699 C431.959,214.502 431.947,214.295 431.935,214.098 L453.933,214.098 C452.72,193.279 448.707,173.217 442.261,154.275 C450.105,177.28 454.36,201.941 454.36,227.597 C454.36,353.04 287.042,454.78 227.179,454.78" id="Fill-522" fill="#DCA05F"></path>
                <path d="M453.933,214.098 L431.935,214.098 C425.356,106.569 335.99,21.394 226.665,21.394 C226.164,21.394 225.654,21.396 225.153,21.399 L225.153,0.417 L227.179,0.417 C326.963,0.417 411.752,64.8 442.261,154.275 C448.707,173.217 452.72,193.279 453.933,214.098" id="Fill-523" fill="#886F55"></path>
                <path d="M431.971,214.699 L408.742,214.699 C402.489,119.682 323.393,44.529 226.665,44.529 C226.163,44.529 225.654,44.531 225.153,44.535 L225.153,21.399 C225.654,21.396 226.164,21.394 226.665,21.394 C335.99,21.394 425.356,106.569 431.935,214.098 C431.947,214.295 431.959,214.502 431.971,214.699" id="Fill-524" fill="#D8CCDB"></path>
                <path d="M276.551,377.708 C313.021,356.428 349.979,317.438 349.979,272.116 C349.979,204.297 294.996,149.317 227.179,149.317 C226.504,149.317 225.825,149.322 225.153,149.333 L225.153,110.951 C225.827,110.941 226.503,110.937 227.179,110.937 C305.171,110.937 368.401,174.164 368.401,252.159 C368.401,307.355 320.738,354.385 276.551,377.708" id="Fill-525" fill="#9F7254"></path>
                <path d="M225.588,394.941 C225.442,394.941 225.3,394.94 225.153,394.939 L225.153,393.409 C225.217,393.41 225.285,393.41 225.349,393.41 C225.965,393.41 226.576,393.4 227.179,393.38 C240.639,392.931 258.3,387.34 276.551,377.708 C258.447,388.271 240.462,394.471 227.179,394.914 C226.657,394.932 226.122,394.941 225.588,394.941" id="Fill-526" fill="#917555"></path>
                <path d="M225.349,393.41 C225.285,393.41 225.217,393.41 225.153,393.41 L225.153,149.333 C225.825,149.322 226.504,149.317 227.179,149.317 C294.996,149.317 349.979,204.297 349.979,272.116 C349.979,317.438 313.021,356.428 276.551,377.708 C258.3,387.34 240.639,392.931 227.179,393.38 C226.576,393.4 225.965,393.41 225.349,393.41" id="Fill-527" fill="#755E50"></path>
                <path d="M273.135,318.043 C244.135,346.396 216.409,375.999 188.94,405.86 C219.401,471.5 283.667,516.53 361.966,516.53 C471.735,516.53 560.785,427.521 560.785,317.705 L273.135,318.043" id="Fill-528" fill="#81461E"></path>
                <path d="M177.172,391.69 L176.997,559.34 C267.809,559.34 341.158,483.444 336.272,391.69 L177.172,391.69" id="Fill-529" fill="#CCBCD0"></path>
                <path d="M177.103,391.533 L176.965,519.077 C285.737,519.077 373.602,428.17 367.743,318.269 L250.446,318.269 C209.967,318.269 177.146,351.058 177.103,391.533" id="Fill-530" fill="#151515"></path>
                <polygon id="Fill-531" fill="#FDC24B" points="324.918 611.358 426.087 611.358 426.087 592.087 324.918 592.087"></polygon>
            </g>
        </g>
    </g>
</svg>