<?xml version="1.0" encoding="UTF-8"?>
<svg width="650px" height="532px" viewBox="0 0 650 532" version="1.1" xmlns="http://www.w3.org/2000/svg" xmlns:xlink="http://www.w3.org/1999/xlink">
    <!-- Generator: Sketch 52.6 (67491) - http://www.bohemiancoding.com/sketch -->
    <title>Group 8</title>
    <desc>Created with Sketch.</desc>
    <g id="Page-1" stroke="none" stroke-width="1" fill="none" fill-rule="evenodd">
        <g id="7456" transform="translate(-2475.000000, -1367.000000)">
            <g id="Group-8" transform="translate(2475.000000, 1367.000000)">
                <path d="M436.05,282.38 C499.29,238.96 514.85,151.79 470.83,87.68 L241.84,244.91 C285.86,309.02 372.81,325.8 436.05,282.38" id="Fill-257" fill="#494C4C"></path>
                <path d="M410.39,245.02 C453.27,215.58 463.83,156.46 433.98,112.98 L278.7,219.61 C308.55,263.08 367.51,274.46 410.39,245.02" id="Fill-258" fill="#838788"></path>
                <polyline id="Fill-259" fill="#F9A11B" points="481.96 457.01 465.98 461.49 448.14 397.8 464.12 393.32 481.96 457.01"></polyline>
                <path d="M516.46,466.58 C516.46,471.49 512.49,475.47 507.58,475.47 L443.41,475.47 C438.5,475.47 434.52,471.49 434.52,466.58 C434.52,461.67 438.5,457.69 443.41,457.69 L507.58,457.69 C512.49,457.69 516.46,461.67 516.46,466.58" id="Fill-260" fill="#F9A11B"></path>
                <polyline id="Fill-261" fill="#FDCD08" points="440.98 457.01 425 461.49 407.16 397.8 423.14 393.32 440.98 457.01"></polyline>
                <polyline id="Fill-262" fill="#2E3030" points="359.46 356.57 165.84 531.25 0 531.25 314.83 301.63 359.46 356.57"></polyline>
                <polyline id="Fill-263" fill="#FDCE07" points="650 49.76 596.83 92.75 589.17 26.82 650 49.76"></polyline>
                <polyline id="Fill-264" fill="#F9A11B" points="650 49.76 596.83 92.75 592.61 56.43 650 49.76"></polyline>
                <path d="M448.14,55.01 L327.93,242.23 L549.54,93.07 L608.21,93.07 C633.03,1.68 493.19,-40.92 448.14,55.01" id="Fill-265" fill="#2E3030"></path>
                <path d="M549.79,59.54 C549.79,67.14 555.87,73.3 563.36,73.3 C570.86,73.3 576.94,67.14 576.94,59.54 C576.94,51.95 570.86,45.79 563.36,45.79 C555.87,45.79 549.79,51.95 549.79,59.54" id="Fill-266" fill="#E8E7E7"></path>
                <path d="M556.85,59.54 C556.85,63.19 559.77,66.14 563.36,66.14 C566.96,66.14 569.88,63.19 569.88,59.54 C569.88,55.9 566.96,52.95 563.36,52.95 C559.77,52.95 556.85,55.9 556.85,59.54" id="Fill-267" fill="#151518"></path>
                <path d="M608.21,136.83 L608.21,93.07 L549.54,93.07 L191.69,319.89 C378.68,574.75 756.59,342.92 608.21,136.83" id="Fill-268" fill="#EC2224"></path>
                <path d="M507.68,354.01 C570.92,310.59 586.48,223.42 542.46,159.31 L313.47,316.54 C357.49,380.65 444.44,397.43 507.68,354.01" id="Fill-269" fill="#494C4C"></path>
                <path d="M482.02,316.65 C524.9,287.21 535.46,228.09 505.61,184.61 L350.33,291.24 C380.18,334.71 439.14,346.09 482.02,316.65" id="Fill-270" fill="#3BB2E6"></path>
                <path d="M475.49,466.58 C475.49,471.49 471.51,475.47 466.61,475.47 L402.43,475.47 C397.52,475.47 393.54,471.49 393.54,466.58 C393.54,461.67 397.52,457.69 402.43,457.69 L466.61,457.69 C471.51,457.69 475.49,461.67 475.49,466.58" id="Fill-271" fill="#FDCD08"></path>
            </g>
        </g>
    </g>
</svg>