<?xml version="1.0" encoding="UTF-8"?>
<svg width="488px" height="693px" viewBox="0 0 488 693" version="1.1" xmlns="http://www.w3.org/2000/svg" xmlns:xlink="http://www.w3.org/1999/xlink">
    <!-- Generator: Sketch 52.6 (67491) - http://www.bohemiancoding.com/sketch -->
    <title>Group 9</title>
    <desc>Created with Sketch.</desc>
    <g id="Page-1" stroke="none" stroke-width="1" fill="none" fill-rule="evenodd">
        <g id="7456" transform="translate(-1308.000000, -1223.000000)">
            <g id="Group-9" transform="translate(1308.000000, 1223.000000)">
                <polyline id="Fill-272" fill="#FAAF41" points="304.5 682.07 304.5 641.83 291.58 641.83 291.58 682.07 251.84 682.07 251.84 693 341.76 693 341.76 682.07 304.5 682.07"></polyline>
                <polyline id="Fill-273" fill="#FAAF41" points="197.19 682.07 197.19 641.83 184.27 641.83 184.27 682.07 144.53 682.07 144.53 693 234.45 693 234.45 682.07 197.19 682.07"></polyline>
                <path d="M108.82,280.08 L108.82,555.39 C108.67,555.39 108.56,555.43 108.45,555.43 C49.13,555.43 0.91,493.85 0.91,417.75 C0.91,342.32 48.42,280.5 107.9,280.08 L108.82,280.08" id="Fill-274" fill="#8A5F3C"></path>
                <path d="M383.73,280.07 C383.6,280.07 383.48,280.08 383.36,280.08 L383.36,555.41 C383.48,555.41 383.6,555.42 383.73,555.42 C440.83,555.42 487.12,493.78 487.12,417.74 C487.12,341.7 440.83,280.07 383.73,280.07" id="Fill-275" fill="#8A5F3C"></path>
                <path d="M426.98,221.49 C427.78,170.72 390.16,126.07 338.74,108.66 C380.59,103.07 416.03,50.92 351.91,0 C351.2,1.29 296.02,100.25 297.33,100.94 L195.5,100.52 L140.06,0 C76.42,50.5 111.05,101.41 150.93,108.25 C98.86,125.36 61.44,169.68 61.44,221.49 L61.44,521.95 C61.44,588.37 122.9,642.82 198.16,642.82 L290.25,642.82 C355.09,642.82 409.49,602.47 423.48,549.13 C428.48,530.08 426.98,221.49 426.98,221.49" id="Fill-276" fill="#C1986C"></path>
                <path d="M369.79,75.51 L369.75,75.59 C360.23,92.74 336.88,98.03 317.45,87.46 L352.05,24.71 C375.6,43.43 377.91,60.78 369.79,75.51" id="Fill-277" fill="#8A5F3C"></path>
                <path d="M123.19,75.51 L123.23,75.59 C132.75,92.74 156.1,98.03 175.53,87.46 L140.92,24.71 C117.38,43.43 115.06,60.78 123.19,75.51" id="Fill-278" fill="#8A5F3C"></path>
                <path d="M244.23,539.61 L244.23,487.09 C249.29,487.09 254.35,490.45 254.35,497.14 L254.35,529.55 C254.35,536.24 249.29,539.6 244.23,539.61" id="Fill-279" fill="#E6D6C4"></path>
                <path d="M341.36,482.09 C336.29,482.09 331.22,478.73 331.22,472.03 L331.22,439.62 C331.22,432.91 336.28,429.56 341.35,429.56 C346.42,429.56 351.5,432.92 351.5,439.62 L351.5,472.03 C351.5,478.73 346.43,482.09 341.36,482.09" id="Fill-280" fill="#E6D6C4"></path>
                <path d="M295.16,517.21 C290.09,517.21 285.02,513.86 285.02,507.15 L285.02,474.75 C285.02,468.03 290.08,464.68 295.15,464.68 C300.22,464.68 305.3,468.04 305.3,474.75 L305.3,507.15 C305.3,513.86 300.23,517.21 295.16,517.21" id="Fill-281" fill="#E6D6C4"></path>
                <path d="M209.56,642.89 C205.21,642.89 201.46,642.87 198.11,642.82 C198.13,642.82 198.15,642.82 198.16,642.82 L244.23,642.82 C229.31,642.82 218.25,642.89 209.56,642.89 M184.27,642.22 C179.76,641.83 175.59,641.25 170.7,640.36 C168.22,639.91 165.75,639.39 163.3,638.82 C170.1,640.41 177.1,641.55 184.27,642.2 L184.27,642.22 M63.69,543.78 C63.61,543.46 63.54,543.15 63.46,542.83 C63.48,542.84 63.49,542.84 63.5,542.85 C63.56,543.16 63.63,543.47 63.69,543.78 M61.44,221.49 C61.44,221.41 61.44,221.31 61.44,221.22 C61.44,221.31 61.44,221.4 61.44,221.49 M61.44,221.16 C61.44,221.07 61.44,220.98 61.44,220.89 C61.44,220.98 61.44,221.08 61.44,221.16 M61.44,220.87 C61.44,220.78 61.44,220.7 61.44,220.61 C61.44,220.7 61.44,220.78 61.44,220.87 M61.44,220.57 C61.44,220.47 61.45,220.38 61.45,220.29 C61.45,220.38 61.44,220.48 61.44,220.57 M61.45,220.27 C61.45,220.18 61.45,220.09 61.45,220 C61.45,220.09 61.45,220.18 61.45,220.27 M61.45,219.97 C61.45,219.87 61.45,219.78 61.45,219.68 C61.45,219.78 61.45,219.87 61.45,219.97 M61.46,219.67 C62.32,168.72 99.29,125.16 150.62,108.2 C150.72,108.22 150.82,108.23 150.93,108.25 C99.47,125.16 62.32,168.65 61.46,219.67 M244.23,100.72 L218.97,100.62 L244.23,100.62 L244.23,100.72" id="Fill-282" fill="#D6C7BB"></path>
                <path d="M186.9,642.41 C186,642.35 185.13,642.29 184.27,642.22 L184.27,642.2 C185.14,642.28 186.02,642.35 186.9,642.41" id="Fill-283" fill="#D3933F"></path>
                <path d="M63.5,542.85 C63.49,542.84 63.48,542.84 63.46,542.83 C62.7,539.55 62.05,536.2 61.52,532.78 L61.52,526.08 C61.74,531.78 62.41,537.38 63.5,542.85" id="Fill-284" fill="#8A5F3C"></path>
                <path d="M244.23,642.82 L198.16,642.82 C198.15,642.82 198.13,642.82 198.11,642.82 C193.84,642.75 190.23,642.63 186.9,642.41 C186.02,642.35 185.14,642.28 184.27,642.2 C177.1,641.55 170.1,640.41 163.3,638.82 C116.9,627.88 76.01,594.62 63.69,543.78 C63.63,543.47 63.56,543.16 63.5,542.85 C62.41,537.38 61.74,531.78 61.52,526.08 L61.44,221.49 C61.44,221.4 61.44,221.31 61.44,221.22 C61.44,221.2 61.44,221.18 61.44,221.16 C61.44,221.08 61.44,220.98 61.44,220.89 C61.44,220.89 61.44,220.88 61.44,220.87 C61.44,220.78 61.44,220.7 61.44,220.61 C61.44,220.6 61.44,220.58 61.44,220.57 C61.44,220.48 61.45,220.38 61.45,220.29 C61.45,220.28 61.45,220.27 61.45,220.27 C61.45,220.18 61.45,220.09 61.45,220 C61.45,219.99 61.45,219.98 61.45,219.97 C61.45,219.87 61.45,219.78 61.45,219.68 C61.45,219.68 61.45,219.67 61.46,219.67 C62.32,168.65 99.47,125.16 150.93,108.25 C150.82,108.23 150.72,108.22 150.62,108.2 C165.45,103.3 181.47,100.62 198.16,100.62 L218.97,100.62 L244.23,100.72 L244.23,487.09 C244.22,487.09 244.22,487.09 244.21,487.09 C239.14,487.09 234.07,490.44 234.07,497.14 L234.07,529.55 C234.07,536.27 239.13,539.61 244.2,539.61 C244.21,539.61 244.22,539.61 244.23,539.61 L244.23,642.82 M195.41,460.75 C190.34,460.75 185.27,464.1 185.27,470.8 L185.27,503.21 C185.27,509.92 190.33,513.27 195.39,513.27 C200.47,513.27 205.55,509.91 205.55,503.21 L205.55,470.8 C205.55,464.1 200.48,460.75 195.41,460.75 M149.2,425.62 C144.13,425.62 139.06,428.98 139.06,435.68 L139.06,468.08 C139.06,474.8 144.12,478.15 149.19,478.15 C154.26,478.15 159.34,474.79 159.34,468.08 L159.34,435.68 C159.34,428.98 154.27,425.62 149.2,425.62" id="Fill-285" fill="#AE845B"></path>
                <path d="M149.19,478.15 C144.12,478.15 139.06,474.8 139.06,468.08 L139.06,435.68 C139.06,428.98 144.13,425.62 149.2,425.62 C154.27,425.62 159.34,428.98 159.34,435.68 L159.34,468.08 C159.34,474.79 154.26,478.15 149.19,478.15" id="Fill-286" fill="#C6AC95"></path>
                <path d="M195.39,513.27 C190.33,513.27 185.27,509.92 185.27,503.21 L185.27,470.8 C185.27,464.1 190.34,460.75 195.41,460.75 C200.48,460.75 205.55,464.1 205.55,470.8 L205.55,503.21 C205.55,509.91 200.47,513.27 195.39,513.27" id="Fill-287" fill="#C6AC95"></path>
                <path d="M244.2,539.61 C239.13,539.61 234.07,536.27 234.07,529.55 L234.07,497.14 C234.07,490.44 239.14,487.09 244.21,487.09 C244.22,487.09 244.22,487.09 244.23,487.09 L244.23,539.61 C244.22,539.61 244.21,539.61 244.2,539.61" id="Fill-288" fill="#C6AC95"></path>
                <path d="M243.92,345.04 C243.92,345.04 222.51,327.96 222.51,315.04 L222.51,269.69 C222.51,238.43 265.32,238.72 265.32,269.69 L265.32,315.04 C265.32,327.96 243.92,345.04 243.92,345.04" id="Fill-289" fill="#FFDD0F"></path>
                <path d="M417.06,246.21 C417.06,294.46 377.95,333.58 329.69,333.58 C281.44,333.58 242.33,294.46 242.33,246.21 C242.33,197.96 281.44,158.84 329.69,158.84 C377.95,158.84 417.06,197.96 417.06,246.21" id="Fill-290" fill="#D1D2D3"></path>
                <path d="M329.69,167.29 C286.11,167.29 250.77,202.62 250.77,246.21 C250.77,289.8 286.11,325.13 329.69,325.13 C373.28,325.13 408.62,289.8 408.62,246.21 C408.62,202.62 373.28,167.29 329.69,167.29 Z M417.06,246.21 C417.06,294.46 377.95,333.58 329.69,333.58 C281.44,333.58 242.33,294.46 242.33,246.21 C242.33,197.96 281.44,158.84 329.69,158.84 C377.95,158.84 417.06,197.96 417.06,246.21 Z" id="Fill-291" fill="#293B8F"></path>
                <path d="M357.55,246.21 C357.55,261.6 345.08,274.07 329.69,274.07 C314.31,274.07 301.84,261.6 301.84,246.21 C301.84,230.83 314.31,218.35 329.69,218.35 C345.08,218.35 357.55,230.83 357.55,246.21" id="Fill-292" fill="#221F1F"></path>
                <path d="M338.95,245.8 C338.95,250.68 334.99,254.64 330.11,254.64 C325.23,254.64 321.28,250.68 321.28,245.8 C321.28,240.92 325.23,236.96 330.11,236.96 C334.99,236.96 338.95,240.92 338.95,245.8" id="Fill-293" fill="#FFFFFF"></path>
                <path d="M243.1,246.21 C243.1,294.46 203.99,333.58 155.73,333.58 C107.48,333.58 68.37,294.46 68.37,246.21 C68.37,197.96 107.48,158.84 155.73,158.84 C203.99,158.84 243.1,197.96 243.1,246.21" id="Fill-294" fill="#D1D2D3"></path>
                <path d="M155.73,167.29 C112.15,167.29 76.81,202.62 76.81,246.21 C76.81,289.8 112.15,325.13 155.73,325.13 C199.32,325.13 234.66,289.8 234.66,246.21 C234.66,202.62 199.32,167.29 155.73,167.29 Z M243.1,246.21 C243.1,294.46 203.99,333.58 155.73,333.58 C107.48,333.58 68.37,294.46 68.37,246.21 C68.37,197.96 107.48,158.84 155.73,158.84 C203.99,158.84 243.1,197.96 243.1,246.21 Z" id="Fill-295" fill="#293B8F"></path>
                <path d="M183.59,246.21 C183.59,261.6 171.12,274.07 155.73,274.07 C140.35,274.07 127.88,261.6 127.88,246.21 C127.88,230.83 140.35,218.35 155.73,218.35 C171.12,218.35 183.59,230.83 183.59,246.21" id="Fill-296" fill="#221F1F"></path>
                <path d="M164.99,245.8 C164.99,250.68 161.03,254.64 156.15,254.64 C151.27,254.64 147.31,250.68 147.31,245.8 C147.31,240.92 151.27,236.96 156.15,236.96 C161.03,236.96 164.99,240.92 164.99,245.8" id="Fill-297" fill="#FFFFFF"></path>
            </g>
        </g>
    </g>
</svg>