<?xml version="1.0" encoding="UTF-8"?>
<svg width="559px" height="706px" viewBox="0 0 559 706" version="1.1" xmlns="http://www.w3.org/2000/svg" xmlns:xlink="http://www.w3.org/1999/xlink">
    <!-- Generator: Sketch 52.6 (67491) - http://www.bohemiancoding.com/sketch -->
    <title>Group 10</title>
    <desc>Created with Sketch.</desc>
    <g id="Page-1" stroke="none" stroke-width="1" fill="none" fill-rule="evenodd">
        <g id="7456" transform="translate(0.000000, -1222.000000)">
            <g id="Group-10" transform="translate(0.000000, 1222.000000)">
                <path d="M214.316,706 L134.521,706 L192.27,531.25 L228.774,476.08 L244.902,466.34 C282.047,506.45 226.675,667.57 214.316,706" id="Fill-298" fill="#19232C"></path>
                <path d="M365.58,599.56 C396.67,464.86 309.729,369.15 271.408,335.08 L302.308,277.41 L378.814,311.34 C378.814,311.34 617.965,396.88 474.228,706 L339.882,706 C347.899,674.25 356.53,638.76 365.58,599.56" id="Fill-299" fill="#CEC5BA"></path>
                <path d="M88.964,311.34 C88.964,311.34 -102.458,77.18 138.104,2.25 C161.108,-4.92 183.939,13.74 181.262,37.69 L175.058,93.17 C175.058,93.17 329.274,40.53 444.061,125.01 L416.123,151.05 C416.123,151.05 519.259,181.22 556.417,254.34 C563.992,269.24 552.007,286.71 535.401,284.82 C480.784,278.62 400.204,283.81 378.814,311.34 L88.964,311.34" id="Fill-300" fill="#ED2D24"></path>
                <path d="M172.19,361.83 L124.355,406.75 C62.273,374.56 2.006,381.72 0.041,381.96 C1.837,380.86 76.372,335.56 172.19,361.83" id="Fill-301" fill="#F0B31C"></path>
                <path d="M350.149,706 L214.316,706 C219.433,690.09 284.024,508.59 244.902,466.34 L228.774,476.08 L307.113,357.67 C413.393,452.17 411.618,595.57 350.149,706" id="Fill-302" fill="#AAA8A9"></path>
                <path d="M172.19,361.83 C76.372,335.56 1.837,380.86 0.041,381.96 L0,381.98 C31.559,327.97 102.201,296.28 102.201,296.28 L172.19,361.83" id="Fill-303" fill="#FCEC19"></path>
                <path d="M259.25,466.34 C259.25,524.06 220.271,570.85 172.19,570.85 C124.107,570.85 85.128,524.06 85.128,466.34 C85.128,408.62 124.107,361.83 172.19,361.83 C220.271,361.83 259.25,408.62 259.25,466.34" id="Fill-304" fill="#ED2D24"></path>
                <path d="M350.151,418.53 C350.151,464.62 310.312,501.98 261.17,501.98 C212.027,501.98 172.19,464.62 172.19,418.53 C172.19,372.44 212.027,335.08 261.17,335.08 C310.312,335.08 350.151,372.44 350.151,418.53" id="Fill-305" fill="#ED2D24"></path>
                <path d="M107.835,279.93 C107.835,279.93 218.382,235.42 306.084,294.33 C315.925,300.94 313.163,300.28 281.249,346.8 C326.399,361.46 311.118,450.43 230.754,439.99 C168.9,431.96 157.464,376.98 107.835,279.93" id="Fill-306" fill="#E31E26"></path>
                <path d="M166.454,308.91 C166.454,326.31 147.606,340.41 124.36,340.41 C101.114,340.41 82.268,326.31 82.268,308.91 C82.268,291.51 101.114,277.41 124.36,277.41 C147.606,277.41 166.454,291.51 166.454,308.91" id="Fill-307" fill="#E31E26"></path>
                <path d="M215.565,348.96 C200.083,351.08 165.829,345.59 146.495,335.7 L200.161,296.29 C219.035,306.91 225.454,330.53 215.565,348.96" id="Fill-308" fill="#FFFFFF"></path>
                <path d="M215.565,348.96 C225.454,330.53 219.037,306.91 200.161,296.29 L209.477,287.67 L244.894,310.6 C244.894,310.6 245.521,348.96 215.565,348.96" id="Fill-309" fill="#AD1F23"></path>
                <path d="M214.059,328.16 C214.059,334.92 208.573,340.41 201.81,340.41 C195.047,340.41 189.563,334.92 189.563,328.16 C189.563,321.4 195.047,315.91 201.81,315.91 C208.573,315.91 214.059,321.4 214.059,328.16" id="Fill-310" fill="#19232C"></path>
                <path d="M82.268,342.02 C82.268,345.85 78.686,348.96 74.267,348.96 C69.849,348.96 66.267,345.85 66.267,342.02 C66.267,338.19 69.849,335.08 74.267,335.08 C78.686,335.08 82.268,338.19 82.268,342.02" id="Fill-311" fill="#F0B31C"></path>
                <polyline id="Fill-312" fill="#AAA8A9" points="439.5 460.29 424.554 475.24 409.608 460.29 424.554 445.34 439.5 460.29"></polyline>
                <polyline id="Fill-313" fill="#AAA8A9" points="487.061 516.92 472.114 531.87 457.168 516.92 472.114 501.98 487.061 516.92"></polyline>
                <polyline id="Fill-314" fill="#AAA8A9" points="450.07 570.85 435.124 585.8 420.175 570.85 435.124 555.9 450.07 570.85"></polyline>
                <polyline id="Fill-315" fill="#AAA8A9" points="487.061 617.77 472.114 632.72 457.168 617.77 472.114 602.82 487.061 617.77"></polyline>
                <polyline id="Fill-316" fill="#AAA8A9" points="435.124 647.67 420.175 662.61 405.229 647.67 420.175 632.72 435.124 647.67"></polyline>
                <path d="M435.124,369.87 C435.124,369.87 502.195,390.6 534.655,445.34 L496.29,451.39 L435.124,369.87" id="Fill-317" fill="#CEC5BA"></path>
                <path d="M496.29,434.01 C496.29,434.01 543.733,485.75 544.135,549.4 L507.959,535.26 L496.29,434.01" id="Fill-318" fill="#CEC5BA"></path>
                <path d="M513.988,522.51 C513.988,522.51 555.424,610.1 537.42,683.14 L498.471,645.3 L513.988,522.51" id="Fill-319" fill="#CEC5BA"></path>
            </g>
        </g>
    </g>
</svg>