<?xml version="1.0" encoding="UTF-8"?>
<svg width="651px" height="930px" viewBox="0 0 651 930" version="1.1" xmlns="http://www.w3.org/2000/svg" xmlns:xlink="http://www.w3.org/1999/xlink">
    <!-- Generator: Sketch 52.6 (67491) - http://www.bohemiancoding.com/sketch -->
    <title>Group 12</title>
    <desc>Created with Sketch.</desc>
    <g id="Page-1" stroke="none" stroke-width="1" fill="none" fill-rule="evenodd">
        <g id="7456" transform="translate(-1237.000000, -2395.000000)">
            <g id="Group-12" transform="translate(1237.000000, 2395.000000)">
                <polygon id="Fill-157" fill="#412C28" points="335.65 792.63 356.16 792.63 356.16 713.4 335.65 713.4"></polygon>
                <polygon id="Fill-158" fill="#412C28" points="276.27 792.63 356.16 792.63 356.16 766.19 276.27 766.19"></polygon>
                <path d="M276.27,766.19 C276.27,766.19 224,771.67 237.38,838.8 C237.38,838.8 245.12,809.62 276.27,792.63 L276.27,766.19" id="Fill-159" fill="#412C28"></path>
                <path d="M332.99,838.8 C354.64,832.78 346.82,812.78 327,788.99 C308.01,766.19 307.62,792.63 307.62,792.63 C303.89,811.3 311.37,844.81 332.99,838.8" id="Fill-160" fill="#412C28"></path>
                <path d="M454.17,805.62 C454.17,805.62 329.98,741.76 246.58,652.59 C174.34,575.34 132.72,479.15 228.93,389.06 C235.75,382.67 243.25,376.33 251.46,370.01 C251.46,370.01 262.32,329.74 254.55,304.94 L294.56,211.81 C299.19,219.15 345.96,255.34 335.11,354.51 C341.84,361.85 349.71,367.9 356.16,374.98 C462.28,491.27 527.83,577.58 454.17,805.62" id="Fill-161" fill="#E7B121"></path>
                <path d="M223.09,223.81 C184.32,219.63 140.65,189.82 121.05,175.01 C128.12,172.87 134.63,168.44 139.42,161.96 C144.2,155.49 146.52,147.97 146.5,140.59 C166.41,154.99 207.72,187.98 223.09,223.81" id="Fill-162" fill="#E76624"></path>
                <path d="M146.5,140.59 C146.52,147.97 144.2,155.49 139.42,161.96 C134.63,168.44 128.12,172.87 121.05,175.01 C111.61,167.88 86.99,152.94 101.2,133.71 C115.14,114.85 136.27,133.19 146.5,140.59" id="Fill-163" fill="#412C28"></path>
                <path d="M227.19,211.7 C186.66,193.62 149.79,146.07 133.73,123.18 C142.14,123.33 150.74,120.81 158.19,115.47 C165.63,110.13 170.77,102.8 173.33,94.8 C189.86,117.35 223.07,167.51 227.19,211.7" id="Fill-164" fill="#E76624"></path>
                <path d="M173.33,94.8 C170.77,102.8 165.63,110.13 158.19,115.47 C150.74,120.81 142.14,123.33 133.73,123.18 C126.01,112.16 104.56,87.37 126.67,71.52 C148.37,55.96 164.83,83.21 173.33,94.8" id="Fill-165" fill="#412C28"></path>
                <path d="M240.03,214.76 C202.94,178.04 182.12,110.41 173.96,78.55 C183.14,82.21 193.66,83.01 204.07,80.23 C214.48,77.45 223.17,71.51 229.31,63.77 C238.14,95.46 253.83,164.43 240.03,214.76" id="Fill-166" fill="#E76624"></path>
                <path d="M229.31,63.77 C223.17,71.51 214.48,77.45 204.07,80.23 C193.66,83.01 183.14,82.21 173.96,78.55 C170.04,63.23 156.74,27.04 187.64,18.78 C217.98,10.67 224.78,47.49 229.31,63.77" id="Fill-167" fill="#412C28"></path>
                <path d="M248.8,213.27 C227.35,162.48 234.24,88.06 239.09,53.66 C246.59,60.93 256.54,65.94 267.83,67.41 C279.11,68.89 289.99,66.59 299.1,61.51 C294.97,96 282.53,169.68 248.8,213.27" id="Fill-168" fill="#E76624"></path>
                <path d="M299.1,61.51 C289.99,66.59 279.11,68.89 267.83,67.41 C256.54,65.94 246.59,60.93 239.09,53.66 C241.43,37.11 243.01,-3.58 276.52,0.79 C309.41,5.08 301.23,43.78 299.1,61.51" id="Fill-169" fill="#412C28"></path>
                <path d="M260.09,214.16 C261.67,158.29 299.32,92.54 318.25,62.85 C322.12,72.71 329.18,81.51 338.98,87.62 C348.77,93.72 359.77,96.18 370.31,95.32 C351.99,125.39 309.54,188.13 260.09,214.16" id="Fill-170" fill="#E76624"></path>
                <path d="M370.31,95.32 C359.77,96.18 348.77,93.72 338.98,87.62 C329.18,81.51 322.12,72.71 318.25,62.85 C327.37,48.57 345.93,11.69 375.01,29.82 C403.54,47.6 379.73,79.86 370.31,95.32" id="Fill-171" fill="#412C28"></path>
                <path d="M267.81,223.14 C290.33,176.12 347.34,134.35 374.74,116.22 C374.29,126.09 376.97,136.27 383.01,145.19 C389.04,154.1 397.49,160.37 406.8,163.63 C379.79,182.32 319.82,219.7 267.81,223.14" id="Fill-172" fill="#E76624"></path>
                <path d="M406.8,163.63 C397.49,160.37 389.04,154.1 383.01,145.19 C376.97,136.27 374.29,126.09 374.74,116.22 C387.91,107.51 417.72,83.12 435.63,109.59 C453.2,135.56 420.68,154.02 406.8,163.63" id="Fill-173" fill="#412C28"></path>
                <path d="M271.3,236.97 C308.95,200.91 377.03,181.93 409.06,174.63 C405.16,183.71 404.09,194.19 406.59,204.66 C409.08,215.12 414.78,223.96 422.34,230.3 C390.47,238.26 321.18,252.1 271.3,236.97" id="Fill-174" fill="#E76624"></path>
                <path d="M422.34,230.3 C414.78,223.96 409.08,215.12 406.59,204.66 C404.09,194.19 405.16,183.71 409.06,174.63 C424.47,171.13 460.96,158.81 468.38,189.9 C475.66,220.4 438.72,226.21 422.34,230.3" id="Fill-175" fill="#412C28"></path>
                <path d="M276.53,250.06 C317.52,228.61 380.24,229.23 409.35,230.9 C403.79,237.68 400.29,246.35 399.83,255.88 C399.38,265.43 402.06,274.37 406.94,281.64 C377.81,280.57 315.32,275.27 276.53,250.06" id="Fill-176" fill="#E76624"></path>
                <path d="M406.94,281.64 C402.06,274.37 399.38,265.43 399.83,255.88 C400.29,246.35 403.79,237.68 409.35,230.9 C423.35,231.71 457.5,230.21 456.16,258.54 C454.85,286.35 421.92,282.19 406.94,281.64" id="Fill-177" fill="#412C28"></path>
                <path d="M531.19,695.18 L575.12,768.57 L527.03,820.89 L472.73,730.17 C464.81,716.96 469.13,699.82 482.33,691.93 L492.94,685.58 C506.14,677.67 523.28,681.96 531.19,695.18" id="Fill-178" fill="#8A93A3"></path>
                <path d="M575.12,768.57 L630.24,860.67 C638.16,873.88 633.84,891.01 620.64,898.92 L610.03,905.26 C596.83,913.16 579.7,908.88 571.79,895.66 L527.03,820.89 L575.12,768.57" id="Fill-179" fill="#231716"></path>
                <path d="M497.07,715.6 L541.01,788.99 L492.92,841.31 L438.61,750.59 C430.7,737.37 435.02,720.24 448.22,712.34 L458.83,705.99 C472.03,698.09 489.16,702.38 497.07,715.6" id="Fill-180" fill="#C9CDD5"></path>
                <path d="M541.01,788.99 L596.13,881.08 C604.05,894.3 599.73,911.43 586.53,919.33 L575.92,925.68 C562.73,933.58 545.59,929.3 537.67,916.08 L492.92,841.31 L541.01,788.99" id="Fill-181" fill="#412C28"></path>
                <path d="M307.62,252.47 C307.62,291.08 276.32,322.38 237.71,322.38 C199.11,322.38 167.81,291.08 167.81,252.47 C167.81,213.86 199.11,182.56 237.71,182.56 C276.32,182.56 307.62,213.86 307.62,252.47" id="Fill-182" fill="#E7B121"></path>
                <path d="M167.81,252.47 C167.81,252.47 3.6,294.1 0.5,405.64 C0.5,405.64 35.2,317.89 175.09,283.53 L167.81,252.47" id="Fill-183" fill="#663115"></path>
                <path d="M232.03,248.83 C232.03,260.06 222.93,269.16 211.7,269.16 C200.47,269.16 191.36,260.06 191.36,248.83 C191.36,237.6 200.47,228.49 211.7,228.49 C222.93,228.49 232.03,237.6 232.03,248.83" id="Fill-184" fill="#080505"></path>
                <path d="M650.5,704.09 C569.92,776.09 407.47,691.05 346.39,562.53 C316.31,501.37 306.09,419.76 356.15,375 L650.5,704.09" id="Fill-185" fill="#412C28"></path>
                <path d="M218.75,248.83 C218.75,252.72 215.59,255.88 211.7,255.88 C207.81,255.88 204.65,252.72 204.65,248.83 C204.65,244.93 207.81,241.78 211.7,241.78 C215.59,241.78 218.75,244.93 218.75,248.83" id="Fill-186" fill="#F9FAFB"></path>
                <path d="M486.98,521.26 C462.44,530.92 431.32,536.71 397.47,536.71 C374.14,536.71 352.13,533.97 332.66,529.11 C335.85,538.84 340.64,550.82 346.39,562.53 C362.61,565.04 379.76,566.38 397.47,566.38 C439.43,566.38 478.15,558.86 509.22,546.12 L486.98,521.26" id="Fill-187" fill="#C9CDD5"></path>
                <path d="M541.79,582.54 C515.49,597.06 477.24,606.19 434.65,606.19 C410.04,606.19 386.87,603.15 366.63,597.76 C374.74,609.96 383.88,621.92 394.08,633.47 C407.14,635.05 420.71,635.89 434.65,635.89 C484.98,635.89 530.64,625.04 564.04,607.42 L541.79,582.54" id="Fill-188" fill="#C9CDD5"></path>
                <path d="M594.64,641.63 C569.47,662.05 523.88,675.69 471.83,675.69 C459.38,675.69 447.31,674.9 435.79,673.44 C451.5,686.01 467.76,696.63 484.17,705.16 C538.2,703.25 585.9,688.8 617.48,667.16 L594.64,641.63" id="Fill-189" fill="#C9CDD5"></path>
                <path d="M307.61,525.98 C307.61,579.78 283.13,626.84 246.58,652.59 C174.34,575.34 132.72,479.15 228.93,389.06 C275.05,410.82 307.61,463.91 307.61,525.98" id="Fill-190" fill="#F3DB2B"></path>
                <polyline id="Fill-191" fill="#F3DB2B" points="290.81 339.69 276.15 382.34 261.49 339.69 290.81 339.69"></polyline>
                <polyline id="Fill-192" fill="#F3DB2B" points="322.28 370.36 307.62 413.01 292.96 370.36 322.28 370.36"></polyline>
                <polyline id="Fill-193" fill="#F3DB2B" points="322.28 631.27 307.62 673.92 292.96 631.27 322.28 631.27"></polyline>
                <polyline id="Fill-194" fill="#F3DB2B" points="381.29 660.29 366.63 702.94 351.98 660.29 381.29 660.29"></polyline>
                <polyline id="Fill-195" fill="#F3DB2B" points="442.65 702.03 427.99 744.68 413.33 702.03 442.65 702.03"></polyline>
            </g>
        </g>
    </g>
</svg>