<?xml version="1.0" encoding="UTF-8"?>
<svg width="651px" height="746px" viewBox="0 0 651 746" version="1.1" xmlns="http://www.w3.org/2000/svg" xmlns:xlink="http://www.w3.org/1999/xlink">
    <!-- Generator: Sketch 52.6 (67491) - http://www.bohemiancoding.com/sketch -->
    <title>Group 14</title>
    <desc>Created with Sketch.</desc>
    <g id="Page-1" stroke="none" stroke-width="1" fill="none" fill-rule="evenodd">
        <g id="7456" transform="translate(-3712.000000, -2487.000000)">
            <g id="Group-14" transform="translate(3712.000000, 2487.000000)">
                <path d="M318.73,682.43 L281.4,682.43 L281.4,629.92 L248.5,629.92 L248.5,719.65 L147.62,745.16 L281.4,745.16 C281.4,642.19 281.4,788.88 281.4,698.04 L318.73,682.43" id="Fill-111" fill="#FDC24B"></path>
                <path d="M649.91,384.5 C642.47,288.12 567.55,212.4 476.21,212.4 C379.91,212.4 301.99,296.9 301.99,400.67 L513.77,400.44 L513.77,518.04 C513.77,541.39 549.07,541.41 549.07,518.04 L549.07,400.4 L563.97,400.38 L563.97,538.45 C563.97,561.8 599.27,561.82 599.27,538.45 L599.27,400.33 L615.09,400.32 L615.09,582.61 C615.09,605.96 650.39,605.99 650.39,582.61 C650.39,578.48 650.84,388.53 649.91,384.5" id="Fill-112" fill="#2B4666"></path>
                <path d="M0.5,399.83 L250.31,400.9 C239.84,117.39 258.55,48.16 181.13,48.16 C148.22,48.16 121.55,74.94 121.55,107.96 C121.55,131.96 135.66,152.59 155.97,162.12 C71.22,242.06 25.19,333.46 0.5,399.83" id="Fill-113" fill="#F07A22"></path>
                <path d="M346,400.2 C353.88,517.43 166.7,550.99 143.21,399.99 L0.5,399.83 C0.5,532.15 107.38,639.89 239.45,639.89 C371.5,639.89 478.59,532.65 478.59,400.34 L346,400.2" id="Fill-114" fill="#81461E"></path>
                <path d="M266.08,63.84 L141.18,63.84 C141.18,29.1 169.33,0.94 204.06,0.94 L266.08,0.94 L266.08,63.84" id="Fill-115" fill="#BC202E"></path>
                <path d="M156.05,136.45 C156.05,152.19 146.46,164.95 134.64,164.95 C122.81,164.95 113.22,152.19 113.22,136.45 C113.22,120.71 122.81,107.95 134.64,107.95 C146.46,107.95 156.05,120.71 156.05,136.45" id="Fill-116" fill="#BC202E"></path>
                <polyline id="Fill-117" fill="#FDC24B" points="127.57 82.35 127.26 116.28 90.43 99.32 127.57 82.35"></polyline>
                <path d="M157.93,88.29 C157.93,91.88 155.02,94.77 151.44,94.77 C147.86,94.77 144.96,91.88 144.96,88.29 C144.96,84.71 147.86,81.81 151.44,81.81 C155.02,81.81 157.93,84.71 157.93,88.29" id="Fill-118" fill="#151515"></path>
                <path d="M344.92,400.47 C344.92,460.31 299.81,508.82 244.2,508.82 C188.57,508.82 143.56,460.09 143.56,400.24 L344.92,400.47" id="Fill-119" fill="#F07A22"></path>
                <path d="M344.92,400.4 C344.82,460.16 299.76,508.57 244.2,508.57 C188.63,508.57 143.66,459.94 143.57,400.17 L100.57,400.12 C100.57,484.35 164.8,552.93 244.19,552.93 C323.54,552.93 387.91,484.67 387.91,400.44 L344.92,400.4" id="Fill-120" fill="#016938"></path>
            </g>
        </g>
    </g>
</svg>